<svg width="34" height="32" viewBox="0 0 34 32" fill="none" xmlns="http://www.w3.org/2000/svg">
<path d="M23.6132 8.15715C21.7444 6.44169 19.3665 5.57007 16.5423 5.57007C14.3911 5.57007 12.463 6.15694 10.8138 7.31679C9.04609 8.5565 8.15002 10.1331 8.15002 12.0013C8.15002 13.8175 8.67302 15.2586 9.70506 16.2865C10.5907 17.1651 11.804 17.7103 13.3207 17.9082V21.1065C13.3207 22.2559 13.1847 23.2039 12.9197 23.9262C12.6582 24.6381 12.2642 25.2146 11.7482 25.6417L11.7378 25.6486C11.5599 25.8118 11.4832 25.9369 11.4832 26.0653C11.4832 26.1244 11.5042 26.4091 11.9226 26.423C12.0725 26.4265 12.2015 26.43 12.3165 26.43H12.5118C14.7153 26.43 16.8701 26.0306 18.9132 25.2423C21.1726 24.3777 22.9891 23.1484 24.3175 21.5892C25.8237 19.8251 26.5873 17.7311 26.5873 15.3697C26.5908 12.3972 25.5866 9.96985 23.6132 8.15715ZM15.3429 23.2942C15.6079 22.5198 15.7404 21.7003 15.7404 20.853V17.8145C16.8178 17.6373 17.8324 17.1373 18.7528 16.3212C19.7465 15.4427 20.2521 14.4981 20.2521 13.5119C20.2521 12.9181 20.1161 12.425 19.8442 12.0395C19.5199 11.5881 19.0527 11.3589 18.453 11.3589C17.6755 11.3589 17.1351 11.7409 16.891 12.4632C16.8561 12.5708 16.8387 12.6785 16.8387 12.7861C16.8387 12.9007 16.8457 12.9806 16.8596 13.0362L16.8631 13.0535C16.9433 13.2966 17.1037 13.3348 17.1908 13.3348C17.414 13.3348 17.5221 13.1126 17.5639 13.0257C17.5709 13.0188 17.5953 13.0014 17.6511 12.9806C17.7138 12.9598 17.8359 12.932 18.059 12.932C18.1287 12.932 18.2264 12.9528 18.3275 13.116C18.4251 13.2758 18.4739 13.4841 18.4739 13.7376C18.4739 14.387 18.0904 15.0294 17.3408 15.6406C16.7515 16.1129 16.2146 16.3872 15.7369 16.4532V10.6956C15.7369 10.5394 15.7892 10.3588 15.8938 10.1574C16.0089 9.93512 16.1762 9.67468 16.3959 9.37604L16.4029 9.36909C16.4482 9.30311 16.4691 9.21977 16.4691 9.11906C16.4691 8.93849 16.3889 8.8482 16.3227 8.79958C16.2216 8.73013 16.0926 8.72319 15.9391 8.77875L15.9252 8.78569C15.8171 8.83431 15.6776 8.90724 15.4998 9.00447C14.9908 9.28922 14.6038 9.49758 14.3492 9.62606C14.011 9.78928 13.6763 9.9386 13.3556 10.0671C12.9093 10.2442 12.7907 10.3032 12.7384 10.331C12.6024 10.4109 12.5257 10.5324 12.5257 10.6817C12.5257 10.8693 12.6303 11.0151 12.8082 11.088C12.9023 11.1262 13.0034 11.1644 13.115 11.1992C13.2091 11.2478 13.3242 11.3485 13.3242 11.6436V16.5331C12.2189 16.2969 11.3612 15.8767 10.772 15.2829C10.0328 14.5294 9.65973 13.4459 9.65973 12.0638C9.65973 10.4907 10.364 9.2406 11.818 8.24397C13.1464 7.33415 14.7397 6.87229 16.5528 6.87229C18.7947 6.87229 20.6531 7.64668 22.0756 9.17115C23.4493 10.6366 24.1432 12.4805 24.1432 14.6509C24.1432 16.7345 23.6167 18.6201 22.5812 20.2487C21.6433 21.7142 20.3706 22.881 18.7982 23.7144C17.4558 24.4193 16.0368 24.8083 14.5724 24.8777C14.8792 24.4228 15.1407 23.8915 15.3429 23.2942Z" fill="white"/>
<path d="M23.6132 8.15715C21.7444 6.44169 19.3665 5.57007 16.5423 5.57007C14.3911 5.57007 12.463 6.15694 10.8138 7.31679C9.04609 8.5565 8.15002 10.1331 8.15002 12.0013C8.15002 13.8175 8.67302 15.2586 9.70506 16.2865C10.5907 17.1651 11.804 17.7103 13.3207 17.9082V21.1065C13.3207 22.2559 13.1847 23.2039 12.9197 23.9262C12.6582 24.6381 12.2642 25.2146 11.7482 25.6417L11.7378 25.6486C11.5599 25.8118 11.4832 25.9369 11.4832 26.0653C11.4832 26.1244 11.5042 26.4091 11.9226 26.423C12.0725 26.4265 12.2015 26.43 12.3165 26.43H12.5118C14.7153 26.43 16.8701 26.0306 18.9132 25.2423C21.1726 24.3777 22.9891 23.1484 24.3175 21.5892C25.8237 19.8251 26.5873 17.7311 26.5873 15.3697C26.5908 12.3972 25.5866 9.96985 23.6132 8.15715ZM15.3429 23.2942C15.6079 22.5198 15.7404 21.7003 15.7404 20.853V17.8145C16.8178 17.6373 17.8324 17.1373 18.7528 16.3212C19.7465 15.4427 20.2521 14.4981 20.2521 13.5119C20.2521 12.9181 20.1161 12.425 19.8442 12.0395C19.5199 11.5881 19.0527 11.3589 18.453 11.3589C17.6755 11.3589 17.1351 11.7409 16.891 12.4632C16.8561 12.5708 16.8387 12.6785 16.8387 12.7861C16.8387 12.9007 16.8457 12.9806 16.8596 13.0362L16.8631 13.0535C16.9433 13.2966 17.1037 13.3348 17.1908 13.3348C17.414 13.3348 17.5221 13.1126 17.5639 13.0257C17.5709 13.0188 17.5953 13.0014 17.6511 12.9806C17.7138 12.9598 17.8359 12.932 18.059 12.932C18.1287 12.932 18.2264 12.9528 18.3275 13.116C18.4251 13.2758 18.4739 13.4841 18.4739 13.7376C18.4739 14.387 18.0904 15.0294 17.3408 15.6406C16.7515 16.1129 16.2146 16.3872 15.7369 16.4532V10.6956C15.7369 10.5394 15.7892 10.3588 15.8938 10.1574C16.0089 9.93512 16.1762 9.67468 16.3959 9.37604L16.4029 9.36909C16.4482 9.30311 16.4691 9.21977 16.4691 9.11906C16.4691 8.93849 16.3889 8.8482 16.3227 8.79958C16.2216 8.73013 16.0926 8.72319 15.9391 8.77875L15.9252 8.78569C15.8171 8.83431 15.6776 8.90724 15.4998 9.00447C14.9908 9.28922 14.6038 9.49758 14.3492 9.62606C14.011 9.78928 13.6763 9.9386 13.3556 10.0671C12.9093 10.2442 12.7907 10.3032 12.7384 10.331C12.6024 10.4109 12.5257 10.5324 12.5257 10.6817C12.5257 10.8693 12.6303 11.0151 12.8082 11.088C12.9023 11.1262 13.0034 11.1644 13.115 11.1992C13.2091 11.2478 13.3242 11.3485 13.3242 11.6436V16.5331C12.2189 16.2969 11.3612 15.8767 10.772 15.2829C10.0328 14.5294 9.65973 13.4459 9.65973 12.0638C9.65973 10.4907 10.364 9.2406 11.818 8.24397C13.1464 7.33415 14.7397 6.87229 16.5528 6.87229C18.7947 6.87229 20.6531 7.64668 22.0756 9.17115C23.4493 10.6366 24.1432 12.4805 24.1432 14.6509C24.1432 16.7345 23.6167 18.6201 22.5812 20.2487C21.6433 21.7142 20.3706 22.881 18.7982 23.7144C17.4558 24.4193 16.0368 24.8083 14.5724 24.8777C14.8792 24.4228 15.1407 23.8915 15.3429 23.2942Z" fill="white"/>
<path d="M16.0664 32C24.9259 32 32.1327 24.8221 32.1327 16.0017C32.1327 7.18134 24.9259 0 16.0664 0C7.20684 0 -1.14441e-05 7.17786 -1.14441e-05 16.0017C-1.14441e-05 24.8256 7.21033 32 16.0664 32ZM18.2856 0.906348C26.6395 0.906348 33.4384 7.67792 33.4384 15.9983C33.4384 24.3186 26.6395 31.0902 18.2856 31.0902C9.93161 31.0902 3.13269 24.3186 3.13269 15.9983C3.13269 7.67792 9.93161 0.906348 18.2856 0.906348Z" fill="white"/>
<path d="M16.0664 32C24.9259 32 32.1327 24.8221 32.1327 16.0017C32.1327 7.18134 24.9259 0 16.0664 0C7.20684 0 -1.14441e-05 7.17786 -1.14441e-05 16.0017C-1.14441e-05 24.8256 7.21033 32 16.0664 32ZM18.2856 0.906348C26.6395 0.906348 33.4384 7.67792 33.4384 15.9983C33.4384 24.3186 26.6395 31.0902 18.2856 31.0902C9.93161 31.0902 3.13269 24.3186 3.13269 15.9983C3.13269 7.67792 9.93161 0.906348 18.2856 0.906348Z" fill="white"/>
</svg>
