<svg width="208" height="50" viewBox="0 0 208 50" fill="none" xmlns="http://www.w3.org/2000/svg">
<path d="M23.6132 8.15714C21.7444 6.44168 19.3665 5.57005 16.5423 5.57005C14.3911 5.57005 12.463 6.15692 10.8138 7.31677C9.04609 8.55649 8.15002 10.133 8.15002 12.0013C8.15002 13.8175 8.67302 15.2586 9.70506 16.2865C10.5907 17.1651 11.804 17.7103 13.3207 17.9082V21.1065C13.3207 22.2559 13.1847 23.2039 12.9197 23.9262C12.6582 24.6381 12.2642 25.2145 11.7482 25.6417L11.7378 25.6486C11.5599 25.8118 11.4832 25.9368 11.4832 26.0653C11.4832 26.1244 11.5042 26.4091 11.9226 26.423C12.0725 26.4265 12.2015 26.43 12.3165 26.43H12.5118C14.7153 26.43 16.8701 26.0306 18.9132 25.2423C21.1726 24.3776 22.9891 23.1483 24.3175 21.5891C25.8237 19.8251 26.5873 17.7311 26.5873 15.3697C26.5908 12.3972 25.5866 9.96984 23.6132 8.15714ZM15.3429 23.2942C15.6079 22.5198 15.7404 21.7003 15.7404 20.853V17.8144C16.8178 17.6373 17.8324 17.1373 18.7528 16.3212C19.7465 15.4427 20.2521 14.4981 20.2521 13.5119C20.2521 12.9181 20.1161 12.425 19.8442 12.0395C19.5199 11.5881 19.0527 11.3589 18.453 11.3589C17.6755 11.3589 17.1351 11.7409 16.891 12.4632C16.8561 12.5708 16.8387 12.6785 16.8387 12.7861C16.8387 12.9007 16.8457 12.9806 16.8596 13.0361L16.8631 13.0535C16.9433 13.2966 17.1037 13.3348 17.1908 13.3348C17.414 13.3348 17.5221 13.1125 17.5639 13.0257C17.5709 13.0188 17.5953 13.0014 17.6511 12.9806C17.7138 12.9597 17.8359 12.932 18.059 12.932C18.1287 12.932 18.2264 12.9528 18.3275 13.116C18.4251 13.2757 18.4739 13.4841 18.4739 13.7376C18.4739 14.387 18.0904 15.0294 17.3408 15.6406C16.7515 16.1129 16.2146 16.3872 15.7369 16.4532V10.6956C15.7369 10.5393 15.7892 10.3588 15.8938 10.1574C16.0089 9.93511 16.1762 9.67466 16.3959 9.37602L16.4029 9.36908C16.4482 9.3031 16.4691 9.21975 16.4691 9.11905C16.4691 8.93847 16.3889 8.84819 16.3227 8.79957C16.2216 8.73012 16.0926 8.72317 15.9391 8.77873L15.9252 8.78568C15.8171 8.8343 15.6776 8.90722 15.4998 9.00445C14.9908 9.28921 14.6038 9.49756 14.3492 9.62605C14.011 9.78926 13.6763 9.93858 13.3556 10.0671C12.9093 10.2442 12.7907 10.3032 12.7384 10.331C12.6024 10.4109 12.5257 10.5324 12.5257 10.6817C12.5257 10.8692 12.6303 11.0151 12.8082 11.088C12.9023 11.1262 13.0034 11.1644 13.115 11.1991C13.2091 11.2478 13.3242 11.3485 13.3242 11.6436V16.533C12.2189 16.2969 11.3612 15.8767 10.772 15.2829C10.0328 14.5294 9.65973 13.4459 9.65973 12.0638C9.65973 10.4907 10.364 9.24059 11.818 8.24395C13.1464 7.33413 14.7397 6.87228 16.5528 6.87228C18.7947 6.87228 20.6531 7.64667 22.0756 9.17114C23.4493 10.6366 24.1432 12.4805 24.1432 14.6509C24.1432 16.7345 23.6167 18.6201 22.5812 20.2487C21.6433 21.7142 20.3706 22.881 18.7982 23.7144C17.4558 24.4193 16.0368 24.8083 14.5724 24.8777C14.8792 24.4228 15.1407 23.8915 15.3429 23.2942Z" fill="white"/>
<path d="M23.6132 8.15714C21.7444 6.44168 19.3665 5.57005 16.5423 5.57005C14.3911 5.57005 12.463 6.15692 10.8138 7.31677C9.04609 8.55649 8.15002 10.133 8.15002 12.0013C8.15002 13.8175 8.67302 15.2586 9.70506 16.2865C10.5907 17.1651 11.804 17.7103 13.3207 17.9082V21.1065C13.3207 22.2559 13.1847 23.2039 12.9197 23.9262C12.6582 24.6381 12.2642 25.2145 11.7482 25.6417L11.7378 25.6486C11.5599 25.8118 11.4832 25.9368 11.4832 26.0653C11.4832 26.1244 11.5042 26.4091 11.9226 26.423C12.0725 26.4265 12.2015 26.43 12.3165 26.43H12.5118C14.7153 26.43 16.8701 26.0306 18.9132 25.2423C21.1726 24.3776 22.9891 23.1483 24.3175 21.5891C25.8237 19.8251 26.5873 17.7311 26.5873 15.3697C26.5908 12.3972 25.5866 9.96984 23.6132 8.15714ZM15.3429 23.2942C15.6079 22.5198 15.7404 21.7003 15.7404 20.853V17.8144C16.8178 17.6373 17.8324 17.1373 18.7528 16.3212C19.7465 15.4427 20.2521 14.4981 20.2521 13.5119C20.2521 12.9181 20.1161 12.425 19.8442 12.0395C19.5199 11.5881 19.0527 11.3589 18.453 11.3589C17.6755 11.3589 17.1351 11.7409 16.891 12.4632C16.8561 12.5708 16.8387 12.6785 16.8387 12.7861C16.8387 12.9007 16.8457 12.9806 16.8596 13.0361L16.8631 13.0535C16.9433 13.2966 17.1037 13.3348 17.1908 13.3348C17.414 13.3348 17.5221 13.1125 17.5639 13.0257C17.5709 13.0188 17.5953 13.0014 17.6511 12.9806C17.7138 12.9597 17.8359 12.932 18.059 12.932C18.1287 12.932 18.2264 12.9528 18.3275 13.116C18.4251 13.2757 18.4739 13.4841 18.4739 13.7376C18.4739 14.387 18.0904 15.0294 17.3408 15.6406C16.7515 16.1129 16.2146 16.3872 15.7369 16.4532V10.6956C15.7369 10.5393 15.7892 10.3588 15.8938 10.1574C16.0089 9.93511 16.1762 9.67466 16.3959 9.37602L16.4029 9.36908C16.4482 9.3031 16.4691 9.21975 16.4691 9.11905C16.4691 8.93847 16.3889 8.84819 16.3227 8.79957C16.2216 8.73012 16.0926 8.72317 15.9391 8.77873L15.9252 8.78568C15.8171 8.8343 15.6776 8.90722 15.4998 9.00445C14.9908 9.28921 14.6038 9.49756 14.3492 9.62605C14.011 9.78926 13.6763 9.93858 13.3556 10.0671C12.9093 10.2442 12.7907 10.3032 12.7384 10.331C12.6024 10.4109 12.5257 10.5324 12.5257 10.6817C12.5257 10.8692 12.6303 11.0151 12.8082 11.088C12.9023 11.1262 13.0034 11.1644 13.115 11.1991C13.2091 11.2478 13.3242 11.3485 13.3242 11.6436V16.533C12.2189 16.2969 11.3612 15.8767 10.772 15.2829C10.0328 14.5294 9.65973 13.4459 9.65973 12.0638C9.65973 10.4907 10.364 9.24059 11.818 8.24395C13.1464 7.33413 14.7397 6.87228 16.5528 6.87228C18.7947 6.87228 20.6531 7.64667 22.0756 9.17114C23.4493 10.6366 24.1432 12.4805 24.1432 14.6509C24.1432 16.7345 23.6167 18.6201 22.5812 20.2487C21.6433 21.7142 20.3706 22.881 18.7982 23.7144C17.4558 24.4193 16.0368 24.8083 14.5724 24.8777C14.8792 24.4228 15.1407 23.8915 15.3429 23.2942Z" fill="white"/>
<path d="M16.0664 32C24.9259 32 32.1327 24.8221 32.1327 16.0017C32.1327 7.18134 24.9259 0 16.0664 0C7.20684 0 -1.14441e-05 7.17786 -1.14441e-05 16.0017C-1.14441e-05 24.8256 7.21033 32 16.0664 32ZM18.2856 0.906348C26.6395 0.906348 33.4384 7.67792 33.4384 15.9983C33.4384 24.3186 26.6395 31.0902 18.2856 31.0902C9.93161 31.0902 3.13269 24.3186 3.13269 15.9983C3.13269 7.67792 9.93161 0.906348 18.2856 0.906348Z" fill="white"/>
<path d="M16.0664 32C24.9259 32 32.1327 24.8221 32.1327 16.0017C32.1327 7.18134 24.9259 0 16.0664 0C7.20684 0 -1.14441e-05 7.17786 -1.14441e-05 16.0017C-1.14441e-05 24.8256 7.21033 32 16.0664 32ZM18.2856 0.906348C26.6395 0.906348 33.4384 7.67792 33.4384 15.9983C33.4384 24.3186 26.6395 31.0902 18.2856 31.0902C9.93161 31.0902 3.13269 24.3186 3.13269 15.9983C3.13269 7.67792 9.93161 0.906348 18.2856 0.906348Z" fill="white"/>
<path d="M41.8064 26.8779V7.28899H44.1111H53.6574C55.2892 7.28899 56.7849 7.53554 58.1412 8.02518C59.4731 8.47662 60.6655 9.15724 61.7359 10.074C62.7505 10.9074 63.5594 11.9457 64.1766 13.175C64.7519 14.3905 65.0413 15.7031 65.0552 17.1095C65.0552 18.4881 64.7658 19.7869 64.1766 21.0023C63.5734 22.2177 62.7645 23.256 61.7359 24.1311C60.6655 25.0201 59.4731 25.7007 58.1412 26.1799C56.7152 26.6591 55.2194 26.9022 53.6714 26.9022H45.7567L41.8064 26.8779ZM59.2116 12.9458C57.7716 11.7165 55.9203 11.1019 53.6574 11.1019H45.7428V23.0407H53.6574C55.9621 23.0407 57.8135 22.426 59.2256 21.1967C60.5575 20.0786 61.2129 18.7104 61.2129 17.0852C61.2129 15.4461 60.554 14.0675 59.2256 12.9458H59.2116Z" fill="white"/>
<path d="M41.8064 26.8779V7.28899H44.1111H53.6574C55.2892 7.28899 56.7849 7.53554 58.1412 8.02518C59.4731 8.47662 60.6655 9.15724 61.7359 10.074C62.7505 10.9074 63.5594 11.9457 64.1766 13.175C64.7519 14.3905 65.0413 15.7031 65.0552 17.1095C65.0552 18.4881 64.7658 19.7869 64.1766 21.0023C63.5734 22.2177 62.7645 23.256 61.7359 24.1311C60.6655 25.0201 59.4731 25.7007 58.1412 26.1799C56.7152 26.6591 55.2194 26.9022 53.6714 26.9022H45.7567L41.8064 26.8779ZM59.2116 12.9458C57.7716 11.7165 55.9203 11.1019 53.6574 11.1019H45.7428V23.0407H53.6574C55.9621 23.0407 57.8135 22.426 59.2256 21.1967C60.5575 20.0786 61.2129 18.7104 61.2129 17.0852C61.2129 15.4461 60.554 14.0675 59.2256 12.9458H59.2116Z" fill="white"/>
<path d="M65.4805 13.0292L65.111 7.32024H68.6778L68.1966 13.0292H65.4805Z" fill="white"/>
<path d="M65.4805 13.0292L65.111 7.32024H68.6778L68.1966 13.0292H65.4805Z" fill="white"/>
<path d="M90.6854 26.9057H69.6471V7.31677H73.5835V23.19H90.6854V26.9057Z" fill="white"/>
<path d="M90.6854 26.9057H69.6471V7.31677H73.5835V23.19H90.6854V26.9057Z" fill="white"/>
<path d="M111.232 7.30287H115.085V17.0991C115.085 18.5888 114.743 19.9813 114.07 21.2662C113.411 22.5372 112.508 23.6171 111.368 24.5027C109.049 26.3466 106.239 27.2773 102.948 27.2773C99.6425 27.2773 96.8183 26.3605 94.4858 24.5304C92.0312 22.5788 90.8109 20.1029 90.8109 17.113V7.34454H94.6357V17.113C94.6357 17.9742 94.8274 18.7798 95.2249 19.5438C95.6224 20.3078 96.1698 20.978 96.8845 21.5371C98.5163 22.808 100.532 23.4366 102.948 23.4366C105.347 23.4366 107.365 22.808 108.997 21.5371C109.75 20.9363 110.301 20.2661 110.657 19.516C111.054 18.7937 111.246 17.9846 111.246 17.113L111.232 7.30287Z" fill="white"/>
<path d="M111.232 7.30287H115.085V17.0991C115.085 18.5888 114.743 19.9813 114.07 21.2662C113.411 22.5372 112.508 23.6171 111.368 24.5027C109.049 26.3466 106.239 27.2773 102.948 27.2773C99.6425 27.2773 96.8183 26.3605 94.4858 24.5304C92.0312 22.5788 90.8109 20.1029 90.8109 17.113V7.34454H94.6357V17.113C94.6357 17.9742 94.8274 18.7798 95.2249 19.5438C95.6224 20.3078 96.1698 20.978 96.8845 21.5371C98.5163 22.808 100.532 23.4366 102.948 23.4366C105.347 23.4366 107.365 22.808 108.997 21.5371C109.75 20.9363 110.301 20.2661 110.657 19.516C111.054 18.7937 111.246 17.9846 111.246 17.113L111.232 7.30287Z" fill="white"/>
<path d="M136.981 7.34454L127.284 17.1407L136.981 26.9335H131.81L124.704 19.7487L117.571 26.9335H112.4L122.096 17.1407L112.4 7.34454H117.571L124.704 14.5155L131.81 7.34454H136.981Z" fill="white"/>
<path d="M136.981 7.34454L127.284 17.1407L136.981 26.9335H131.81L124.704 19.7487L117.571 26.9335H112.4L122.096 17.1407L112.4 7.34454H117.571L124.704 14.5155L131.81 7.34454H136.981Z" fill="white"/>
<path d="M135.513 26.8779V7.28899H156.663V10.8137H139.449V14.7342H155.484V18.4638H139.449V23.3532H156.663V26.8779H135.513Z" fill="white"/>
<path d="M135.513 26.8779V7.28899H156.663V10.8137H139.449V14.7342H155.484V18.4638H139.449V23.3532H156.663V26.8779H135.513Z" fill="white"/>
<path d="M147.308 5.25404H144.386L147.116 1.25014H150.819L147.308 5.25404Z" fill="#FB9F20"/>
<path d="M43.204 46V36.13H49.588V37.194H44.464V40.456H49.266V41.52H44.464V44.936H49.588V46H43.204ZM50.0618 46L53.2538 42.052V42.682L50.2438 38.958H51.7698L53.9678 41.772H53.5058L55.7038 38.958H57.2158L54.2478 42.654V42.08L57.3978 46H55.8578L53.5058 42.99H53.9678L51.5878 46H50.0618ZM58.295 49.024V40.624C58.295 40.3533 58.2857 40.078 58.267 39.798C58.2483 39.518 58.2203 39.238 58.183 38.958H59.415L59.569 40.582H59.415C59.555 40.0407 59.8537 39.616 60.311 39.308C60.7683 38.9907 61.3143 38.832 61.949 38.832C62.5743 38.832 63.1203 38.9767 63.587 39.266C64.0537 39.5553 64.413 39.9753 64.665 40.526C64.9263 41.0673 65.057 41.716 65.057 42.472C65.057 43.228 64.9263 43.8813 64.665 44.432C64.413 44.9827 64.0537 45.4027 63.587 45.692C63.1203 45.9813 62.5743 46.126 61.949 46.126C61.3237 46.126 60.7823 45.972 60.325 45.664C59.877 45.3467 59.5737 44.922 59.415 44.39H59.569V49.024H58.295ZM61.655 45.118C62.299 45.118 62.8123 44.894 63.195 44.446C63.5777 43.998 63.769 43.34 63.769 42.472C63.769 41.604 63.5777 40.9507 63.195 40.512C62.8123 40.0733 62.299 39.854 61.655 39.854C61.011 39.854 60.4977 40.0733 60.115 40.512C59.7417 40.9507 59.555 41.604 59.555 42.472C59.555 43.34 59.7417 43.998 60.115 44.446C60.4977 44.894 61.011 45.118 61.655 45.118ZM69.6976 46.126C68.5776 46.126 67.6909 45.804 67.0376 45.16C66.3936 44.516 66.0716 43.6293 66.0716 42.5C66.0716 41.7533 66.2116 41.1093 66.4916 40.568C66.7809 40.0173 67.1776 39.5927 67.6816 39.294C68.1856 38.986 68.7736 38.832 69.4456 38.832C70.0896 38.832 70.6356 38.972 71.0836 39.252C71.5316 39.5227 71.8722 39.91 72.1056 40.414C72.3389 40.918 72.4556 41.5153 72.4556 42.206V42.626H67.0656V41.87H71.5876L71.3496 42.052C71.3496 41.324 71.1862 40.7593 70.8596 40.358C70.5422 39.9567 70.0709 39.756 69.4456 39.756C68.7642 39.756 68.2369 39.994 67.8636 40.47C67.4902 40.9367 67.3036 41.576 67.3036 42.388V42.514C67.3036 43.3727 67.5136 44.0213 67.9336 44.46C68.3629 44.8987 68.9556 45.118 69.7116 45.118C70.1316 45.118 70.5236 45.0573 70.8876 44.936C71.2516 44.8147 71.6016 44.614 71.9376 44.334L72.3576 45.216C72.0402 45.5053 71.6436 45.7293 71.1676 45.888C70.7009 46.0467 70.2109 46.126 69.6976 46.126ZM73.8265 46V40.68C73.8265 40.4 73.8172 40.1153 73.7985 39.826C73.7892 39.5273 73.7658 39.238 73.7285 38.958H74.9605L75.1145 40.722L74.9045 40.736C74.9978 40.3067 75.1565 39.952 75.3805 39.672C75.6138 39.3827 75.8892 39.1727 76.2065 39.042C76.5332 38.902 76.8692 38.832 77.2145 38.832C77.3638 38.832 77.4898 38.8367 77.5925 38.846C77.6952 38.8553 77.7978 38.8787 77.9005 38.916L77.8725 40.05C77.7325 39.994 77.6018 39.9613 77.4805 39.952C77.3685 39.9333 77.2285 39.924 77.0605 39.924C76.6498 39.924 76.2952 40.0173 75.9965 40.204C75.7072 40.3907 75.4832 40.638 75.3245 40.946C75.1752 41.254 75.1005 41.5853 75.1005 41.94V46H73.8265ZM78.7421 46V38.958H80.0161V46H78.7421ZM78.6301 37.418V36.046H80.1421V37.418H78.6301ZM85.0724 46.126C83.9524 46.126 83.0658 45.804 82.4124 45.16C81.7684 44.516 81.4464 43.6293 81.4464 42.5C81.4464 41.7533 81.5864 41.1093 81.8664 40.568C82.1558 40.0173 82.5524 39.5927 83.0564 39.294C83.5604 38.986 84.1484 38.832 84.8204 38.832C85.4644 38.832 86.0104 38.972 86.4584 39.252C86.9064 39.5227 87.2471 39.91 87.4804 40.414C87.7138 40.918 87.8304 41.5153 87.8304 42.206V42.626H82.4404V41.87H86.9624L86.7244 42.052C86.7244 41.324 86.5611 40.7593 86.2344 40.358C85.9171 39.9567 85.4458 39.756 84.8204 39.756C84.1391 39.756 83.6118 39.994 83.2384 40.47C82.8651 40.9367 82.6784 41.576 82.6784 42.388V42.514C82.6784 43.3727 82.8884 44.0213 83.3084 44.46C83.7378 44.8987 84.3304 45.118 85.0864 45.118C85.5064 45.118 85.8984 45.0573 86.2624 44.936C86.6264 44.8147 86.9764 44.614 87.3124 44.334L87.7324 45.216C87.4151 45.5053 87.0184 45.7293 86.5424 45.888C86.0758 46.0467 85.5858 46.126 85.0724 46.126ZM89.2153 46V40.624C89.2153 40.3533 89.206 40.078 89.1873 39.798C89.1687 39.518 89.1407 39.238 89.1033 38.958H90.3353L90.4753 40.47H90.3073C90.522 39.938 90.8533 39.532 91.3013 39.252C91.7493 38.972 92.272 38.832 92.8693 38.832C93.7 38.832 94.3253 39.0607 94.7453 39.518C95.1653 39.966 95.3753 40.666 95.3753 41.618V46H94.1013V41.688C94.1013 41.044 93.9753 40.582 93.7233 40.302C93.4713 40.0127 93.0793 39.868 92.5473 39.868C91.9127 39.868 91.4087 40.0593 91.0353 40.442C90.6713 40.8247 90.4893 41.3427 90.4893 41.996V46H89.2153ZM100.203 46.126C99.5035 46.126 98.8968 45.9813 98.3835 45.692C97.8701 45.3933 97.4688 44.9687 97.1795 44.418C96.8995 43.858 96.7595 43.1953 96.7595 42.43C96.7595 41.674 96.9041 41.03 97.1935 40.498C97.4828 39.9567 97.8841 39.546 98.3975 39.266C98.9108 38.9767 99.5128 38.832 100.203 38.832C100.661 38.832 101.104 38.9113 101.533 39.07C101.963 39.2193 102.313 39.4387 102.583 39.728L102.149 40.624C101.879 40.3627 101.58 40.1713 101.253 40.05C100.927 39.9193 100.605 39.854 100.287 39.854C99.5968 39.854 99.0555 40.078 98.6635 40.526C98.2715 40.9647 98.0755 41.604 98.0755 42.444C98.0755 43.2933 98.2715 43.9467 98.6635 44.404C99.0555 44.8613 99.5968 45.09 100.287 45.09C100.595 45.09 100.913 45.0293 101.239 44.908C101.566 44.7867 101.869 44.5953 102.149 44.334L102.583 45.216C102.303 45.5147 101.944 45.7433 101.505 45.902C101.076 46.0513 100.642 46.126 100.203 46.126ZM106.928 46.126C105.808 46.126 104.921 45.804 104.268 45.16C103.624 44.516 103.302 43.6293 103.302 42.5C103.302 41.7533 103.442 41.1093 103.722 40.568C104.011 40.0173 104.408 39.5927 104.912 39.294C105.416 38.986 106.004 38.832 106.676 38.832C107.32 38.832 107.866 38.972 108.314 39.252C108.762 39.5227 109.102 39.91 109.336 40.414C109.569 40.918 109.686 41.5153 109.686 42.206V42.626H104.296V41.87H108.818L108.58 42.052C108.58 41.324 108.416 40.7593 108.09 40.358C107.772 39.9567 107.301 39.756 106.676 39.756C105.994 39.756 105.467 39.994 105.094 40.47C104.72 40.9367 104.534 41.576 104.534 42.388V42.514C104.534 43.3727 104.744 44.0213 105.164 44.46C105.593 44.8987 106.186 45.118 106.942 45.118C107.362 45.118 107.754 45.0573 108.118 44.936C108.482 44.8147 108.832 44.614 109.168 44.334L109.588 45.216C109.27 45.5053 108.874 45.7293 108.398 45.888C107.931 46.0467 107.441 46.126 106.928 46.126ZM117.114 46.126C116.377 46.126 115.817 45.9253 115.434 45.524C115.061 45.1133 114.874 44.4973 114.874 43.676V39.938H113.502V38.958H114.874V37.068L116.148 36.718V38.958H118.136V39.938H116.148V43.564C116.148 44.1053 116.241 44.4927 116.428 44.726C116.624 44.95 116.904 45.062 117.268 45.062C117.455 45.062 117.613 45.048 117.744 45.02C117.884 44.9827 118.01 44.9407 118.122 44.894V45.944C117.982 46 117.819 46.042 117.632 46.07C117.455 46.1073 117.282 46.126 117.114 46.126ZM119.192 46V35.696H120.466V40.484H120.284C120.49 39.9427 120.821 39.532 121.278 39.252C121.736 38.972 122.263 38.832 122.86 38.832C123.71 38.832 124.335 39.0607 124.736 39.518C125.147 39.9753 125.352 40.666 125.352 41.59V46H124.078V41.66C124.078 41.0347 123.957 40.582 123.714 40.302C123.472 40.0127 123.075 39.868 122.524 39.868C121.908 39.868 121.409 40.0593 121.026 40.442C120.653 40.8247 120.466 41.3333 120.466 41.968V46H119.192ZM130.362 46.126C129.242 46.126 128.356 45.804 127.702 45.16C127.058 44.516 126.736 43.6293 126.736 42.5C126.736 41.7533 126.876 41.1093 127.156 40.568C127.446 40.0173 127.842 39.5927 128.346 39.294C128.85 38.986 129.438 38.832 130.11 38.832C130.754 38.832 131.3 38.972 131.748 39.252C132.196 39.5227 132.537 39.91 132.77 40.414C133.004 40.918 133.12 41.5153 133.12 42.206V42.626H127.73V41.87H132.252L132.014 42.052C132.014 41.324 131.851 40.7593 131.524 40.358C131.207 39.9567 130.736 39.756 130.11 39.756C129.429 39.756 128.902 39.994 128.528 40.47C128.155 40.9367 127.968 41.576 127.968 42.388V42.514C127.968 43.3727 128.178 44.0213 128.598 44.46C129.028 44.8987 129.62 45.118 130.376 45.118C130.796 45.118 131.188 45.0573 131.552 44.936C131.916 44.8147 132.266 44.614 132.602 44.334L133.022 45.216C132.705 45.5053 132.308 45.7293 131.832 45.888C131.366 46.0467 130.876 46.126 130.362 46.126ZM140.605 46.126C139.989 46.126 139.447 45.9813 138.981 45.692C138.514 45.4027 138.15 44.9827 137.889 44.432C137.627 43.8813 137.497 43.228 137.497 42.472C137.497 41.716 137.627 41.0673 137.889 40.526C138.15 39.9753 138.514 39.5553 138.981 39.266C139.447 38.9767 139.989 38.832 140.605 38.832C141.221 38.832 141.757 38.986 142.215 39.294C142.681 39.602 142.994 40.0267 143.153 40.568H142.985V35.696H144.259V46H142.999V44.362H143.153C143.003 44.9127 142.695 45.3467 142.229 45.664C141.771 45.972 141.23 46.126 140.605 46.126ZM140.899 45.118C141.533 45.118 142.042 44.894 142.425 44.446C142.817 43.998 143.013 43.34 143.013 42.472C143.013 41.604 142.817 40.9507 142.425 40.512C142.042 40.0733 141.533 39.854 140.899 39.854C140.264 39.854 139.751 40.0733 139.359 40.512C138.976 40.9507 138.785 41.604 138.785 42.472C138.785 43.34 138.976 43.998 139.359 44.446C139.751 44.894 140.264 45.118 140.899 45.118ZM146.113 46V38.958H147.387V46H146.113ZM146.001 37.418V36.046H147.513V37.418H146.001ZM149.63 46V39.938H148.258V38.958H149.98L149.63 39.28V38.146C149.63 37.3247 149.835 36.704 150.246 36.284C150.656 35.8547 151.254 35.64 152.038 35.64C152.224 35.64 152.42 35.654 152.626 35.682C152.84 35.71 153.018 35.7567 153.158 35.822V36.858C153.046 36.8113 152.906 36.774 152.738 36.746C152.57 36.718 152.406 36.704 152.248 36.704C151.968 36.704 151.725 36.76 151.52 36.872C151.314 36.984 151.16 37.152 151.058 37.376C150.955 37.5907 150.904 37.8753 150.904 38.23V39.224L150.708 38.958H152.85V39.938H150.904V46H149.63ZM153.93 46V39.938H152.558V38.958H154.28L153.93 39.28V38.146C153.93 37.3247 154.135 36.704 154.546 36.284C154.956 35.8547 155.554 35.64 156.338 35.64C156.524 35.64 156.72 35.654 156.926 35.682C157.14 35.71 157.318 35.7567 157.458 35.822V36.858C157.346 36.8113 157.206 36.774 157.038 36.746C156.87 36.718 156.706 36.704 156.548 36.704C156.268 36.704 156.025 36.76 155.82 36.872C155.614 36.984 155.46 37.152 155.358 37.376C155.255 37.5907 155.204 37.8753 155.204 38.23V39.224L155.008 38.958H157.15V39.938H155.204V46H153.93ZM161.098 46.126C159.978 46.126 159.092 45.804 158.438 45.16C157.794 44.516 157.472 43.6293 157.472 42.5C157.472 41.7533 157.612 41.1093 157.892 40.568C158.182 40.0173 158.578 39.5927 159.082 39.294C159.586 38.986 160.174 38.832 160.846 38.832C161.49 38.832 162.036 38.972 162.484 39.252C162.932 39.5227 163.273 39.91 163.506 40.414C163.74 40.918 163.856 41.5153 163.856 42.206V42.626H158.466V41.87H162.988L162.75 42.052C162.75 41.324 162.587 40.7593 162.26 40.358C161.943 39.9567 161.472 39.756 160.846 39.756C160.165 39.756 159.638 39.994 159.264 40.47C158.891 40.9367 158.704 41.576 158.704 42.388V42.514C158.704 43.3727 158.914 44.0213 159.334 44.46C159.764 44.8987 160.356 45.118 161.112 45.118C161.532 45.118 161.924 45.0573 162.288 44.936C162.652 44.8147 163.002 44.614 163.338 44.334L163.758 45.216C163.441 45.5053 163.044 45.7293 162.568 45.888C162.102 46.0467 161.612 46.126 161.098 46.126ZM165.227 46V40.68C165.227 40.4 165.218 40.1153 165.199 39.826C165.19 39.5273 165.167 39.238 165.129 38.958H166.361L166.515 40.722L166.305 40.736C166.399 40.3067 166.557 39.952 166.781 39.672C167.015 39.3827 167.29 39.1727 167.607 39.042C167.934 38.902 168.27 38.832 168.615 38.832C168.765 38.832 168.891 38.8367 168.993 38.846C169.096 38.8553 169.199 38.8787 169.301 38.916L169.273 40.05C169.133 39.994 169.003 39.9613 168.881 39.952C168.769 39.9333 168.629 39.924 168.461 39.924C168.051 39.924 167.696 40.0173 167.397 40.204C167.108 40.3907 166.884 40.638 166.725 40.946C166.576 41.254 166.501 41.5853 166.501 41.94V46H165.227ZM173.253 46.126C172.133 46.126 171.247 45.804 170.593 45.16C169.949 44.516 169.627 43.6293 169.627 42.5C169.627 41.7533 169.767 41.1093 170.047 40.568C170.337 40.0173 170.733 39.5927 171.237 39.294C171.741 38.986 172.329 38.832 173.001 38.832C173.645 38.832 174.191 38.972 174.639 39.252C175.087 39.5227 175.428 39.91 175.661 40.414C175.895 40.918 176.011 41.5153 176.011 42.206V42.626H170.621V41.87H175.143L174.905 42.052C174.905 41.324 174.742 40.7593 174.415 40.358C174.098 39.9567 173.627 39.756 173.001 39.756C172.32 39.756 171.793 39.994 171.419 40.47C171.046 40.9367 170.859 41.576 170.859 42.388V42.514C170.859 43.3727 171.069 44.0213 171.489 44.46C171.919 44.8987 172.511 45.118 173.267 45.118C173.687 45.118 174.079 45.0573 174.443 44.936C174.807 44.8147 175.157 44.614 175.493 44.334L175.913 45.216C175.596 45.5053 175.199 45.7293 174.723 45.888C174.257 46.0467 173.767 46.126 173.253 46.126ZM177.396 46V40.624C177.396 40.3533 177.387 40.078 177.368 39.798C177.35 39.518 177.322 39.238 177.284 38.958H178.516L178.656 40.47H178.488C178.703 39.938 179.034 39.532 179.482 39.252C179.93 38.972 180.453 38.832 181.05 38.832C181.881 38.832 182.506 39.0607 182.926 39.518C183.346 39.966 183.556 40.666 183.556 41.618V46H182.282V41.688C182.282 41.044 182.156 40.582 181.904 40.302C181.652 40.0127 181.26 39.868 180.728 39.868C180.094 39.868 179.59 40.0593 179.216 40.442C178.852 40.8247 178.67 41.3427 178.67 41.996V46H177.396ZM188.384 46.126C187.684 46.126 187.078 45.9813 186.564 45.692C186.051 45.3933 185.65 44.9687 185.36 44.418C185.08 43.858 184.94 43.1953 184.94 42.43C184.94 41.674 185.085 41.03 185.374 40.498C185.664 39.9567 186.065 39.546 186.578 39.266C187.092 38.9767 187.694 38.832 188.384 38.832C188.842 38.832 189.285 38.9113 189.714 39.07C190.144 39.2193 190.494 39.4387 190.764 39.728L190.33 40.624C190.06 40.3627 189.761 40.1713 189.434 40.05C189.108 39.9193 188.786 39.854 188.468 39.854C187.778 39.854 187.236 40.078 186.844 40.526C186.452 40.9647 186.256 41.604 186.256 42.444C186.256 43.2933 186.452 43.9467 186.844 44.404C187.236 44.8613 187.778 45.09 188.468 45.09C188.776 45.09 189.094 45.0293 189.42 44.908C189.747 44.7867 190.05 44.5953 190.33 44.334L190.764 45.216C190.484 45.5147 190.125 45.7433 189.686 45.902C189.257 46.0513 188.823 46.126 188.384 46.126ZM195.109 46.126C193.989 46.126 193.102 45.804 192.449 45.16C191.805 44.516 191.483 43.6293 191.483 42.5C191.483 41.7533 191.623 41.1093 191.903 40.568C192.192 40.0173 192.589 39.5927 193.093 39.294C193.597 38.986 194.185 38.832 194.857 38.832C195.501 38.832 196.047 38.972 196.495 39.252C196.943 39.5227 197.283 39.91 197.517 40.414C197.75 40.918 197.867 41.5153 197.867 42.206V42.626H192.477V41.87H196.999L196.761 42.052C196.761 41.324 196.597 40.7593 196.271 40.358C195.953 39.9567 195.482 39.756 194.857 39.756C194.175 39.756 193.648 39.994 193.275 40.47C192.901 40.9367 192.715 41.576 192.715 42.388V42.514C192.715 43.3727 192.925 44.0213 193.345 44.46C193.774 44.8987 194.367 45.118 195.123 45.118C195.543 45.118 195.935 45.0573 196.299 44.936C196.663 44.8147 197.013 44.614 197.349 44.334L197.769 45.216C197.451 45.5053 197.055 45.7293 196.579 45.888C196.112 46.0467 195.622 46.126 195.109 46.126ZM199.042 46V44.446H200.596V46H199.042ZM202.029 46V44.446H203.583V46H202.029ZM205.017 46V44.446H206.571V46H205.017Z" fill="white"/>
</svg>
