<svg width="48" height="42" viewBox="0 0 48 42" fill="none" xmlns="http://www.w3.org/2000/svg">
<path d="M47.4316 26.0881C46.8043 23.9359 45.6764 21.6716 44.4141 20.031C43.6128 18.9891 42.6248 17.9238 41.3698 17.9235C41.3694 17.9235 41.369 17.9235 41.369 17.9235C40.3055 17.9235 39.4471 18.6639 38.6869 19.5688V5.33423L38.9586 5.33459C40.4286 5.33459 41.6246 4.13782 41.6246 2.66711C41.6246 1.19641 40.4286 0 38.9586 0H14.9019C13.4319 0 12.2358 1.19641 12.2358 2.66711C12.2358 4.13782 13.4319 5.33459 14.9019 5.33459H15.1736V9.42847H2.74365C1.23083 9.42847 0 10.6586 0 12.1707C0 13.4315 0.855835 14.4957 2.01746 14.8151V40.125H1.60803C1.10229 40.125 0.692505 40.5344 0.692505 41.0398C0.692505 41.5448 1.10229 41.9546 1.60803 41.9546H42.394C42.8998 41.9546 43.3099 41.5448 43.3099 41.0398C43.3099 40.5513 42.9265 40.1532 42.4438 40.1276V35.7206C45.3955 35.4694 46.7446 34.0052 47.3591 32.7587C48.4069 30.6343 47.9769 27.9587 47.4316 26.0881ZM2.74365 11.2581H15.1736V13.0836H2.74365C2.24048 13.0836 1.83142 12.6742 1.83142 12.171C1.83142 11.6675 2.24048 11.2581 2.74365 11.2581ZM15.1736 40.125H3.84851V14.9132H15.1736V40.125ZM25.7267 40.125H22.5018V30.5376H25.7267V40.125ZM30.783 40.125H27.5581V30.5376H30.783V40.125ZM36.8555 40.125H32.6144V29.6228C32.6144 29.1178 32.2042 28.708 31.6985 28.708H21.5863C21.0806 28.708 20.6704 29.1178 20.6704 29.6228V40.125H17.005V5.33459H23.2819C23.7876 5.33459 24.1978 4.9248 24.1978 4.4198C24.1978 3.91443 23.7876 3.505 23.2819 3.505H14.9019C14.4496 3.505 14.0673 3.12122 14.0673 2.66711C14.0673 2.20532 14.4415 1.82959 14.9019 1.82959H38.9586C39.4189 1.82959 39.7932 2.20532 39.7932 2.66711C39.7932 3.12122 39.4109 3.505 38.959 3.505L30.576 3.50244C30.576 3.50244 30.576 3.50244 30.5757 3.50244C30.0703 3.50244 29.6602 3.91187 29.6602 4.41687C29.6598 4.92224 30.0696 5.33167 30.5753 5.33203L36.8555 5.33386V22.3301C35.7557 24.4204 35.0511 26.7385 34.9156 28.7249C34.7483 31.1807 35.4177 33.1011 36.8555 34.3143V40.125ZM40.6124 40.125H38.6869V35.1738C39.1436 35.4437 39.7562 35.6389 40.6124 35.7188V40.125ZM45.7167 31.9501C45.1666 33.0648 44.0665 33.7115 42.4438 33.8818V30.0487L43.7981 28.7611C44.1647 28.4128 44.179 27.8339 43.8303 27.4677C43.4817 27.1018 42.902 27.0875 42.5358 27.4358L42.4438 27.5229V24.5988C42.4438 24.0938 42.0341 23.684 41.5283 23.684C41.0226 23.684 40.6128 24.0938 40.6128 24.5988V26.2559L40.5242 26.1713C40.158 25.8226 39.5782 25.8365 39.2296 26.2024C38.8806 26.5679 38.8945 27.1469 39.2604 27.4955L40.6128 28.7834V29.9791L39.8738 29.4532C39.4618 29.1603 38.8901 29.2562 38.5968 29.6675C38.3035 30.0791 38.3994 30.6504 38.8114 30.9434L40.6128 32.2251V33.8815C38.9326 33.7053 37.7871 33.0234 37.2052 31.8435C36.0795 29.5609 37.0364 25.9354 38.4543 23.2236C38.4617 23.2094 38.469 23.1954 38.4763 23.1815C38.8715 22.4312 39.3014 21.7518 39.7313 21.1926C40.6472 20.0028 41.1277 19.7531 41.369 19.7531H41.3694C41.6078 19.7531 42.0776 19.9948 42.9624 21.1458C45.0271 23.8297 47.1328 29.0775 45.7167 31.9501Z" fill="#2447C4"/>
</svg>
