<svg width="32" height="32" viewBox="0 0 32 32" fill="none" xmlns="http://www.w3.org/2000/svg">
<g clip-path="url(#clip0_109_781)">
<path d="M29 3H24.75V2C24.75 1.73478 24.6446 1.48043 24.4571 1.29289C24.2696 1.10536 24.0152 1 23.75 1C23.4848 1 23.2304 1.10536 23.0429 1.29289C22.8554 1.48043 22.75 1.73478 22.75 2V3H9.25V2C9.25 1.73478 9.14464 1.48043 8.95711 1.29289C8.76957 1.10536 8.51522 1 8.25 1C7.98478 1 7.73043 1.10536 7.54289 1.29289C7.35536 1.48043 7.25 1.73478 7.25 2V3H3C2.20435 3 1.44129 3.31607 0.87868 3.87868C0.31607 4.44129 0 5.20435 0 6L0 28C0 28.7956 0.31607 29.5587 0.87868 30.1213C1.44129 30.6839 2.20435 31 3 31H29C29.7956 31 30.5587 30.6839 31.1213 30.1213C31.6839 29.5587 32 28.7956 32 28V6C32 5.20435 31.6839 4.44129 31.1213 3.87868C30.5587 3.31607 29.7956 3 29 3ZM3 5H7.25V6C7.25 6.26522 7.35536 6.51957 7.54289 6.70711C7.73043 6.89464 7.98478 7 8.25 7C8.51522 7 8.76957 6.89464 8.95711 6.70711C9.14464 6.51957 9.25 6.26522 9.25 6V5H22.75V6C22.75 6.26522 22.8554 6.51957 23.0429 6.70711C23.2304 6.89464 23.4848 7 23.75 7C24.0152 7 24.2696 6.89464 24.4571 6.70711C24.6446 6.51957 24.75 6.26522 24.75 6V5H29C29.2652 5 29.5196 5.10536 29.7071 5.29289C29.8946 5.48043 30 5.73478 30 6V8.5H2V6C2 5.73478 2.10536 5.48043 2.29289 5.29289C2.48043 5.10536 2.73478 5 3 5ZM29 29H3C2.73478 29 2.48043 28.8946 2.29289 28.7071C2.10536 28.5196 2 28.2652 2 28V10.5H30V28C30 28.2652 29.8946 28.5196 29.7071 28.7071C29.5196 28.8946 29.2652 29 29 29Z" fill="#219653"/>
<path d="M22.5 13.705C22.289 13.5448 22.0231 13.4748 21.7607 13.5104C21.4982 13.5461 21.2606 13.6844 21.1 13.895L13.795 23.455L10.855 20.315C10.765 20.2191 10.6571 20.1419 10.5373 20.0878C10.4175 20.0336 10.2882 20.0036 10.1568 19.9994C10.0254 19.9953 9.89446 20.017 9.77146 20.0634C9.64847 20.1099 9.53583 20.18 9.43996 20.27C9.3441 20.36 9.26689 20.4679 9.21275 20.5877C9.1586 20.7075 9.12859 20.8368 9.12441 20.9682C9.12023 21.0996 9.14197 21.2305 9.18839 21.3535C9.23482 21.4765 9.30501 21.5891 9.39496 21.685L13.145 25.685C13.2386 25.7846 13.3518 25.864 13.4773 25.9182C13.6029 25.9724 13.7382 26.0002 13.875 26H13.925C14.0704 25.9924 14.2125 25.9531 14.3411 25.8849C14.4698 25.8167 14.582 25.7211 14.67 25.605L22.67 15.105C22.8324 14.8965 22.9056 14.6322 22.8738 14.3699C22.8419 14.1076 22.7075 13.8685 22.5 13.705Z" fill="#219653"/>
</g>
<defs>
<clipPath id="clip0_109_781">
<rect width="32" height="32" fill="white"/>
</clipPath>
</defs>
</svg>
