<svg width="24" height="24" viewBox="0 0 24 24" fill="none" xmlns="http://www.w3.org/2000/svg">
<g opacity="0.4">
<path d="M22.8284 12.0313V11.5743C22.8284 10.7322 22.3924 9.99054 21.7348 9.56163V4.57563C21.7348 3.26378 20.6675 2.19653 19.3557 2.19653H4.64433C3.33248 2.19653 2.26519 3.26378 2.26519 4.57563V9.56159C1.60753 9.99049 1.17159 10.7322 1.17159 11.5742V12.0313C0.498187 12.2086 0 12.8227 0 13.551V18.8993C0 19.7407 0.664781 20.4296 1.49667 20.4687V21.1017C1.49667 21.4893 1.81088 21.8035 2.19844 21.8035C2.586 21.8035 2.9002 21.4893 2.9002 21.1017V20.4706H21.0997V21.1017C21.0997 21.4893 21.414 21.8035 21.8015 21.8035C22.1891 21.8035 22.5033 21.4893 22.5033 21.1017V20.4687C23.3352 20.4296 24 19.7406 24 18.8992V13.551C24 12.8226 23.5018 12.2086 22.8284 12.0313V12.0313ZM3.66877 4.57563C3.66877 4.03769 4.10639 3.60007 4.64433 3.60007H19.3557C19.8936 3.60007 20.3312 4.03769 20.3312 4.57563V9.17252H19.3955V7.93558C19.3955 7.0698 18.6912 6.36541 17.8253 6.36541H14.0492C13.1834 6.36541 12.479 7.0698 12.479 7.93558V9.17252H11.521V7.93558C11.521 7.0698 10.8166 6.36541 9.95081 6.36541H6.17466C5.30883 6.36541 4.60448 7.0698 4.60448 7.93558V9.17252H3.66877V4.57563ZM17.9919 7.93554V9.00588C17.9919 9.09776 17.9172 9.17248 17.8253 9.17248H14.0492C13.9573 9.17248 13.8826 9.09771 13.8826 9.00588V7.93554C13.8826 7.84366 13.9574 7.76894 14.0492 7.76894H17.8253C17.9172 7.76894 17.9919 7.84366 17.9919 7.93554ZM10.1174 7.93554V9.00588C10.1174 9.09776 10.0426 9.17248 9.95081 9.17248H6.17466C6.08278 9.17248 6.00806 9.09771 6.00806 9.00588V7.93554C6.00806 7.84366 6.08283 7.76894 6.17466 7.76894H9.95081C10.0426 7.76894 10.1174 7.84366 10.1174 7.93554V7.93554ZM2.57517 11.5742C2.57517 11.0238 3.02297 10.5761 3.57338 10.5761H20.4266C20.977 10.5761 21.4248 11.0239 21.4248 11.5742V11.9796H2.57517V11.5742ZM22.5964 18.8992C22.5964 18.9918 22.5211 19.067 22.4286 19.067H1.57139C1.47886 19.067 1.40353 18.9918 1.40353 18.8992V13.551C1.40353 13.4585 1.47881 13.3832 1.57139 13.3832H22.4286C22.5211 13.3832 22.5965 13.4585 22.5965 13.551V18.8992H22.5964Z" fill="#2447C4"/>
</g>
</svg>
