<svg width="48" height="48" viewBox="0 0 48 48" fill="none" xmlns="http://www.w3.org/2000/svg">
<path d="M45.6567 24.0627V23.1485C45.6567 21.4645 44.7848 19.9811 43.4695 19.1233V9.15126C43.4695 6.52757 41.335 4.39307 38.7113 4.39307H9.28866C6.66497 4.39307 4.53038 6.52757 4.53038 9.15126V19.1232C3.21506 19.981 2.34319 21.4644 2.34319 23.1484V24.0626C0.996375 24.4172 0 25.6454 0 27.102V37.7986C0 39.4814 1.32956 40.8592 2.99334 40.9375V42.2034C2.99334 42.9785 3.62175 43.6069 4.39688 43.6069C5.172 43.6069 5.80041 42.9785 5.80041 42.2034V40.9412H42.1995V42.2034C42.1995 42.9785 42.8279 43.6069 43.603 43.6069C44.3782 43.6069 45.0066 42.9785 45.0066 42.2034V40.9375C46.6704 40.8591 48 39.4813 48 37.7985V27.102C48 25.6453 47.0036 24.4172 45.6567 24.0627ZM7.33753 9.15126C7.33753 8.07538 8.21278 7.20013 9.28866 7.20013H38.7113C39.7872 7.20013 40.6625 8.07538 40.6625 9.15126V18.345H38.791V15.8712C38.791 14.1396 37.3823 12.7308 35.6507 12.7308H28.0984C26.3668 12.7308 24.958 14.1396 24.958 15.8712V18.345H23.042V15.8712C23.042 14.1396 21.6332 12.7308 19.9016 12.7308H12.3493C10.6177 12.7308 9.20897 14.1396 9.20897 15.8712V18.345H7.33753V9.15126ZM35.9839 15.8711V18.0118C35.9839 18.1955 35.8343 18.3449 35.6507 18.3449H28.0984C27.9146 18.3449 27.7652 18.1954 27.7652 18.0118V15.8711C27.7652 15.6873 27.9147 15.5379 28.0984 15.5379H35.6507C35.8344 15.5379 35.9839 15.6873 35.9839 15.8711ZM20.2348 15.8711V18.0118C20.2348 18.1955 20.0853 18.3449 19.9016 18.3449H12.3493C12.1656 18.3449 12.0161 18.1954 12.0161 18.0118V15.8711C12.0161 15.6873 12.1657 15.5379 12.3493 15.5379H19.9016C20.0853 15.5379 20.2348 15.6873 20.2348 15.8711ZM5.15034 23.1484C5.15034 22.0476 6.04594 21.1521 7.14675 21.1521H40.8532C41.9541 21.1521 42.8497 22.0477 42.8497 23.1484V23.9592H5.15034V23.1484ZM45.1928 37.7985C45.1928 37.9835 45.0423 38.1341 44.8571 38.1341H3.14278C2.95772 38.1341 2.80706 37.9835 2.80706 37.7985V27.102C2.80706 26.917 2.95762 26.7664 3.14278 26.7664H44.8572C45.0423 26.7664 45.1929 26.917 45.1929 27.102V37.7985H45.1928Z" fill="#2447C4"/>
</svg>
