<svg width="48" height="48" viewBox="0 0 48 48" fill="none" xmlns="http://www.w3.org/2000/svg">
<g clip-path="url(#clip0_134_969)">
<path d="M21.3976 10.1992L16.8811 8.98901C16.3874 8.85672 15.8337 8.96632 15.4359 9.27494C15.1333 9.5095 14.945 9.84185 14.904 10.2047L14.4037 12.0721C14.2562 12.4137 14.255 12.8034 14.4043 13.1637C14.4534 13.2823 14.5176 13.3946 14.5941 13.4986C14.116 14.4941 13.5709 15.7217 12.9988 17.0876C12.9981 17.0892 12.9974 17.0907 12.9968 17.0922C12.497 18.2854 11.9769 19.5833 11.4631 20.9234C9.71171 21.3985 7.47831 23.4485 6.82853 25.8728L2.52937 41.9181C2.11565 43.4624 3.13161 45.0812 4.79407 45.5266L9.19534 46.706C9.19534 46.706 9.19552 46.706 9.19552 46.7061L13.5966 47.8853C13.8829 47.962 14.1737 48.0001 14.4618 48.0001C14.9635 48.0001 15.4568 47.8848 15.9029 47.6581C16.6391 47.284 17.1573 46.657 17.3621 45.8926L17.9535 43.6855C17.9536 43.6852 17.9538 43.6848 17.9538 43.6845C17.9539 43.6842 17.9539 43.684 17.954 43.6837L21.6614 29.8475C22.3111 27.423 21.4017 24.5311 20.1226 23.2438C20.4448 21.2146 20.7128 19.2534 20.902 17.5596C20.9026 17.5547 20.9033 17.5498 20.9037 17.5449C20.9984 16.6962 21.0731 15.9155 21.1252 15.2269C21.531 15.0281 21.8529 14.6629 21.9789 14.1931L22.5257 12.1529C22.753 11.3032 22.247 10.4268 21.3976 10.1992ZM15.551 45.4071C15.4857 45.6507 15.309 45.8565 15.0535 45.9864C14.7642 46.1333 14.4192 46.1645 14.0818 46.0741L9.68077 44.8949C9.68068 44.8949 9.68068 44.8948 9.68059 44.8948L5.27932 43.7155C4.62673 43.5406 4.1968 42.9397 4.34042 42.4032L4.68945 41.1006L15.9 44.1045L15.551 45.4071ZM16.3854 42.2935L5.1747 39.2895L8.39715 27.2636L19.6077 30.2675L16.3854 42.2935ZM19.9945 28.4301L8.98065 25.4788C9.79355 23.8741 11.4432 22.7129 12.1721 22.6945C12.5528 22.685 12.89 22.4459 13.0251 22.0898C13.5123 20.805 14.0075 19.5538 14.4868 18.3919H18.917C18.7625 19.6507 18.5704 21.0268 18.3496 22.4484L18.1204 22.387C17.6201 22.2529 17.1062 22.5497 16.9722 23.0499C16.8383 23.55 17.135 24.064 17.6351 24.198L18.7113 24.4864C19.3221 24.9745 20.0885 26.7173 19.9945 28.4301ZM20.2249 13.4948C20.2175 13.4949 20.2102 13.4957 20.2028 13.496C20.1958 13.4962 20.1891 13.4967 20.1822 13.4971C20.1594 13.4985 20.1369 13.5007 20.1144 13.5037C20.1067 13.5047 20.099 13.5057 20.0913 13.5069C20.0689 13.5105 20.0468 13.515 20.0247 13.5201C20.0184 13.5216 20.0118 13.5227 20.0054 13.5244C19.9785 13.5314 19.952 13.5393 19.9259 13.5486C19.9175 13.5516 19.9093 13.5553 19.9009 13.5585C19.8834 13.5653 19.8659 13.5723 19.8489 13.5801C19.8383 13.585 19.8279 13.5902 19.8176 13.5955C19.8029 13.6029 19.7885 13.6106 19.7741 13.6187C19.7641 13.6245 19.7541 13.6304 19.7442 13.6365C19.7293 13.6456 19.7149 13.6555 19.7005 13.6655C19.6923 13.6713 19.6839 13.6769 19.6759 13.683C19.6569 13.6972 19.6385 13.7122 19.6206 13.7279C19.6178 13.7303 19.6148 13.7325 19.612 13.735C19.5909 13.7539 19.5709 13.7739 19.5515 13.7946C19.5474 13.7989 19.5438 13.8035 19.5399 13.8079C19.5251 13.8243 19.5109 13.8412 19.4973 13.8587C19.4918 13.8659 19.4865 13.8733 19.4812 13.8806C19.47 13.8958 19.4593 13.9113 19.4491 13.9273C19.4434 13.9362 19.4378 13.9453 19.4323 13.9544C19.4235 13.9692 19.4153 13.9845 19.4072 13.9998C19.4018 14.0102 19.3963 14.0205 19.3913 14.0311C19.3842 14.0461 19.3779 14.0615 19.3716 14.0769C19.3669 14.0882 19.3618 14.0994 19.3577 14.1109C19.3494 14.1336 19.3422 14.1569 19.3357 14.1805C19.3279 14.2085 19.3216 14.2371 19.3164 14.2661C19.3152 14.2722 19.3135 14.2783 19.3125 14.2844C19.3119 14.2883 19.3118 14.2925 19.3111 14.2966C19.307 14.325 19.3037 14.3533 19.3021 14.3815C19.268 14.9953 19.2087 15.7163 19.1278 16.517H15.28C15.7647 15.4032 16.2159 14.4274 16.6046 13.6583C16.6169 13.6339 16.6279 13.6086 16.6381 13.5829C16.6399 13.5783 16.6423 13.5738 16.6441 13.5692C16.646 13.5642 16.6473 13.5588 16.6492 13.5538C16.6595 13.5253 16.6685 13.4966 16.676 13.4676C16.6821 13.4439 16.6875 13.4201 16.6916 13.3964C16.6937 13.3847 16.6948 13.3731 16.6964 13.3615C16.6988 13.3442 16.7011 13.3271 16.7024 13.3099C16.7034 13.299 16.7037 13.288 16.7042 13.277C16.7051 13.2586 16.7055 13.2404 16.7052 13.2222C16.7051 13.2124 16.7049 13.2027 16.7044 13.193C16.7036 13.1728 16.7019 13.1527 16.6997 13.1327C16.6989 13.125 16.6981 13.1172 16.6971 13.1094C16.6939 13.0855 16.6897 13.0618 16.6846 13.0382C16.6838 13.0343 16.6832 13.0305 16.6824 13.0265C16.6759 12.9982 16.6682 12.9703 16.6592 12.9428C16.6586 12.9411 16.658 12.9395 16.6574 12.9379C16.6493 12.9136 16.64 12.8895 16.6299 12.8659C16.6261 12.8573 16.622 12.8489 16.6181 12.8403C16.6105 12.8239 16.6026 12.8077 16.594 12.7918C16.5886 12.7817 16.583 12.7719 16.5773 12.7621C16.569 12.7479 16.5603 12.734 16.5513 12.7202C16.5448 12.7103 16.5384 12.7004 16.5315 12.6906C16.5212 12.6761 16.5101 12.6621 16.499 12.6481C16.4928 12.6404 16.487 12.6323 16.4804 12.6247C16.4628 12.6041 16.4441 12.5842 16.4247 12.5652C16.4188 12.5594 16.4126 12.5541 16.4065 12.5485C16.3913 12.5343 16.3757 12.5206 16.3595 12.5073C16.3526 12.5017 16.3453 12.4963 16.3382 12.4908C16.3212 12.4778 16.3038 12.4654 16.2858 12.4535C16.2793 12.4493 16.273 12.445 16.2663 12.4409C16.2604 12.4371 16.2547 12.4329 16.2487 12.4293L16.6662 10.8725L20.6421 11.9378L20.2249 13.4948Z" fill="#2447C4"/>
<path d="M15.4497 21.6716L15.4277 21.6658C14.9276 21.5325 14.4137 21.8297 14.2803 22.33C14.1468 22.8303 14.4442 23.344 14.9445 23.4774L14.9665 23.4833C15.0474 23.5049 15.1287 23.5152 15.2086 23.5152C15.6229 23.5152 16.002 23.2383 16.1139 22.819C16.2473 22.3186 15.9499 21.805 15.4497 21.6716Z" fill="#2447C4"/>
<path d="M15.4524 33.0112C14.9802 32.1934 14.218 31.6086 13.3059 31.3642C13.0061 31.2838 12.6977 31.243 12.3895 31.243C10.7935 31.243 9.39015 32.3207 8.9769 33.8636C8.7325 34.7756 8.85784 35.7282 9.32996 36.5459C9.80209 37.3636 10.5644 37.9485 11.4764 38.1928C11.7762 38.2731 12.0845 38.3138 12.3928 38.3138C13.9887 38.3138 15.3921 37.2363 15.8054 35.6932C16.0499 34.7813 15.9245 33.8288 15.4524 33.0112ZM13.9945 35.2081C13.8003 35.9328 13.1417 36.4388 12.3929 36.4388C12.2484 36.4388 12.1034 36.4196 11.9616 36.3816C11.5334 36.2669 11.1754 35.9922 10.9538 35.6083C10.7321 35.2243 10.6732 34.7771 10.788 34.3488C10.9821 33.6241 11.6407 33.1179 12.3896 33.1179C12.534 33.1179 12.6791 33.1372 12.8208 33.1751C13.2491 33.2899 13.607 33.5646 13.8287 33.9486C14.0503 34.3326 14.1091 34.7798 13.9945 35.2081Z" fill="#2447C4"/>
<path d="M45.4697 41.9179L41.1704 25.8728C40.5207 23.4482 38.2873 21.3983 36.5359 20.9234C36.0222 19.5832 35.502 18.2853 35.0023 17.0921C35.0016 17.0905 35.001 17.089 35.0003 17.0874C34.4281 15.7216 33.8831 14.4939 33.4049 13.4986C33.4813 13.3946 33.5455 13.2822 33.5946 13.1637C33.744 12.8035 33.7426 12.4136 33.5953 12.072L33.0948 10.2046C33.0539 9.8419 32.8656 9.50956 32.5631 9.275C32.1653 8.96628 31.6115 8.85669 31.1178 8.98906L26.6012 10.1992C26.1904 10.3093 25.8467 10.5734 25.6335 10.9428C25.4202 11.3123 25.3633 11.742 25.4735 12.1528L26.02 14.1932C26.146 14.663 26.468 15.0281 26.8739 15.2269C26.9258 15.9151 27.0005 16.6953 27.095 17.5435C27.0956 17.5495 27.0965 17.5555 27.0971 17.5615C27.2863 19.2547 27.5541 21.2151 27.8763 23.2437C26.5971 24.5309 25.6879 27.4229 26.3375 29.8473L30.6367 45.8924C30.8417 46.6569 31.3599 47.2839 32.096 47.6579C32.5422 47.8846 33.0355 47.9999 33.5371 47.9999C33.8251 47.9999 34.1161 47.9619 34.4023 47.8851L43.2049 45.5265C43.9898 45.3162 44.6588 44.8367 45.0886 44.1766C45.5393 43.4845 45.6745 42.6825 45.4697 41.9179ZM27.9157 13.5078C27.9018 13.5055 27.8876 13.5037 27.8734 13.502C27.8573 13.5 27.8412 13.4985 27.8249 13.4974C27.8138 13.4966 27.8028 13.4959 27.7915 13.4955C27.7856 13.4953 27.7799 13.4947 27.7741 13.4946L27.357 11.9376L31.3328 10.8726L31.7501 12.4294C31.7441 12.433 31.7384 12.4372 31.7325 12.4409C31.7258 12.4451 31.7192 12.4495 31.7127 12.4538C31.6949 12.4656 31.6775 12.478 31.6607 12.4908C31.6534 12.4964 31.6461 12.5019 31.639 12.5076C31.6231 12.5206 31.6077 12.5342 31.5927 12.5482C31.5865 12.554 31.5799 12.5595 31.5738 12.5654C31.5546 12.5844 31.5361 12.6041 31.5185 12.6246C31.5117 12.6325 31.5055 12.6411 31.4989 12.6493C31.4882 12.6628 31.4775 12.6764 31.4674 12.6904C31.4603 12.7003 31.4537 12.7105 31.447 12.7209C31.4382 12.7343 31.4297 12.7478 31.4216 12.7616C31.4157 12.7717 31.41 12.7819 31.4044 12.7922C31.396 12.8079 31.3883 12.8237 31.3808 12.8397C31.3767 12.8485 31.3724 12.8573 31.3686 12.8662C31.3588 12.8892 31.3498 12.9128 31.3417 12.9366C31.341 12.9387 31.34 12.9409 31.3394 12.943C31.3304 12.9704 31.3228 12.9983 31.3163 13.0264C31.3154 13.0307 31.3147 13.035 31.3139 13.0393C31.3089 13.0624 31.3047 13.0857 31.3015 13.1093C31.3005 13.1172 31.2998 13.1253 31.2989 13.1333C31.2967 13.153 31.2951 13.1729 31.2942 13.193C31.2937 13.2027 31.2934 13.2126 31.2932 13.2224C31.2931 13.2405 31.2935 13.2586 31.2944 13.2769C31.2948 13.288 31.2953 13.299 31.2961 13.3102C31.2975 13.3273 31.2998 13.3444 31.3022 13.3615C31.3037 13.3732 31.3049 13.3849 31.307 13.3964C31.3114 13.4214 31.3169 13.4462 31.3234 13.471C31.3302 13.4971 31.3386 13.523 31.3478 13.5487C31.3502 13.5555 31.3521 13.5627 31.3547 13.5696C31.3558 13.5725 31.3573 13.5753 31.3584 13.5781C31.3693 13.6059 31.3812 13.6329 31.3945 13.6591C31.7833 14.4281 32.2343 15.4035 32.7189 16.5171H28.8711C28.7902 15.7163 28.7309 14.9952 28.6969 14.3815C28.6953 14.3531 28.692 14.3245 28.6878 14.2959C28.6872 14.2921 28.687 14.2883 28.6864 14.2845C28.6854 14.2783 28.6837 14.2721 28.6825 14.2659C28.6775 14.2384 28.6718 14.211 28.6645 14.1843C28.6577 14.1592 28.6499 14.1346 28.6411 14.1105C28.6372 14.0998 28.6325 14.0895 28.6282 14.0789C28.6216 14.0625 28.6147 14.0461 28.6072 14.0303C28.6025 14.0204 28.5974 14.0108 28.5923 14.001C28.5839 13.9848 28.5752 13.9688 28.566 13.9531C28.5608 13.9445 28.5556 13.936 28.5502 13.9276C28.5397 13.9112 28.5287 13.8952 28.5171 13.8795C28.5119 13.8724 28.5069 13.8652 28.5015 13.8582C28.4882 13.8411 28.4742 13.8246 28.4599 13.8084C28.4554 13.8035 28.4512 13.7983 28.4467 13.7934C28.4279 13.7733 28.4083 13.7539 28.3879 13.7355C28.3808 13.7291 28.3732 13.7234 28.366 13.7172C28.3527 13.706 28.3395 13.6948 28.3255 13.6844C28.3139 13.6755 28.3017 13.6674 28.2896 13.659C28.2798 13.6524 28.27 13.6457 28.26 13.6394C28.2459 13.6305 28.2315 13.622 28.2169 13.6138C28.2088 13.6093 28.2006 13.6051 28.1925 13.6008C28.1761 13.5923 28.1596 13.5839 28.1427 13.5763C28.1375 13.5741 28.1324 13.5721 28.1272 13.5699C28.0705 13.5457 28.0112 13.5271 27.9496 13.5145C27.9384 13.5122 27.9272 13.5098 27.9157 13.5078ZM29.288 24.4863L30.3641 24.1981C30.8643 24.0641 31.1611 23.55 31.027 23.0499C30.8929 22.5498 30.3787 22.2528 29.8788 22.387L29.6496 22.4484C29.4289 21.0268 29.2369 19.6505 29.0823 18.392H33.5126C33.9918 19.5539 34.4871 20.8051 34.9742 22.0898C35.1093 22.4459 35.4465 22.6849 35.8273 22.6945C36.5561 22.7129 38.2056 23.8741 39.0185 25.4789L28.0046 28.4301C27.9107 26.7172 28.6772 24.9744 29.288 24.4863ZM31.6137 42.2935L28.3913 30.2675L39.6019 27.2636L42.8243 39.2896L31.6137 42.2935ZM43.5174 43.1536C43.3404 43.4254 43.0571 43.625 42.7198 43.7154L33.9172 46.0741C33.5798 46.1644 33.2349 46.1333 32.9456 45.9863C32.69 45.8565 32.5134 45.6508 32.4481 45.407L32.099 44.1045L43.3096 41.1005L43.6586 42.4032C43.7239 42.6469 43.6738 42.9135 43.5174 43.1536Z" fill="#2447C4"/>
<path d="M33.7185 22.3291C33.5845 21.829 33.0708 21.5319 32.5704 21.666L32.5486 21.6719C32.0484 21.8058 31.7516 22.3199 31.8856 22.8199C31.9977 23.2389 32.3764 23.5152 32.7905 23.5152C32.8707 23.5152 32.9524 23.5048 33.0336 23.483L33.0555 23.4771C33.5556 23.3431 33.8524 22.8291 33.7185 22.3291Z" fill="#2447C4"/>
<path d="M39.0221 33.8637C38.6088 32.3207 37.2054 31.243 35.6095 31.243C35.3012 31.243 34.9929 31.2838 34.6931 31.3642C33.781 31.6085 33.0188 32.1934 32.5466 33.0112C32.0746 33.8288 31.9491 34.7814 32.1934 35.6935C32.6069 37.2363 34.0103 38.3139 35.6061 38.314C35.6062 38.314 35.6062 38.314 35.6063 38.314C35.9144 38.314 36.2228 38.2732 36.5226 38.193C37.4346 37.9487 38.1969 37.3638 38.669 36.5461C39.1411 35.7283 39.2665 34.7757 39.0221 33.8637ZM37.0453 35.6085C36.8236 35.9925 36.4657 36.2671 36.0375 36.3818C35.8959 36.4198 35.7508 36.439 35.6064 36.439C35.6064 36.439 35.6064 36.439 35.6063 36.439C34.8575 36.439 34.1987 35.9329 34.0046 35.2083C33.8898 34.78 33.9487 34.3327 34.1703 33.9487C34.392 33.5648 34.75 33.2902 35.1782 33.1753C35.3199 33.1373 35.465 33.1181 35.6095 33.1181C36.3582 33.1181 37.0169 33.6243 37.2111 34.3491C37.3258 34.7772 37.267 35.2245 37.0453 35.6085Z" fill="#2447C4"/>
<path d="M23.9995 0C23.4818 0 23.062 0.419717 23.062 0.937496V3.44661C23.062 3.96439 23.4818 4.38411 23.9995 4.38411C24.5172 4.38411 24.937 3.96439 24.937 3.44661V0.937496C24.937 0.419717 24.5173 0 23.9995 0Z" fill="#2447C4"/>
<path d="M20.8642 4.70561L19.5895 2.53268C19.3276 2.08606 18.7531 1.93634 18.3066 2.19837C17.86 2.46031 17.7103 3.03471 17.9723 3.48133L19.2469 5.65426C19.4214 5.95182 19.7347 6.11757 20.0564 6.11757C20.2176 6.11757 20.3809 6.07604 20.5298 5.98857C20.9765 5.72654 21.1261 5.15214 20.8642 4.70561Z" fill="#2447C4"/>
<path d="M29.6927 2.19835C29.246 1.93632 28.6716 2.08613 28.4096 2.53266L27.135 4.70559C26.873 5.15221 27.0227 5.72662 27.4693 5.98855C27.6184 6.07602 27.7816 6.11755 27.9427 6.11755C28.2645 6.11755 28.5777 5.9518 28.7524 5.65424L30.027 3.48131C30.2889 3.03469 30.1392 2.46029 29.6927 2.19835Z" fill="#2447C4"/>
</g>
<defs>
<clipPath id="clip0_134_969">
<rect width="48" height="48" fill="white"/>
</clipPath>
</defs>
</svg>
