<svg width="12" height="13" viewBox="0 0 12 13" fill="none" xmlns="http://www.w3.org/2000/svg">
<g opacity="0.5">
<path d="M1.95098 5.92224C1.70083 6.17239 1.70083 6.57951 1.95098 6.83211C2.20114 7.08227 2.60825 7.08227 2.86085 6.83211C4.59231 5.10066 7.41021 5.10066 9.14167 6.83211C9.26674 6.95719 9.43106 7.02095 9.59538 7.02095C9.75969 7.02095 9.92401 6.95719 10.0491 6.83211C10.2992 6.58196 10.2992 6.17485 10.0491 5.92224C7.81732 3.68803 4.18274 3.68803 1.95098 5.92224Z" fill="#2447C4"/>
<path d="M3.68731 7.6588C3.43716 7.90896 3.43716 8.31607 3.68731 8.56868C3.93746 8.81883 4.34457 8.81883 4.59718 8.56868C5.36971 7.79369 6.63028 7.79369 7.40281 8.56868C7.52789 8.69376 7.69221 8.75752 7.85652 8.75752C8.02084 8.75752 8.18515 8.69376 8.31023 8.56868C8.56038 8.31852 8.56038 7.91141 8.31023 7.66126C7.0374 6.38351 4.9626 6.38351 3.68731 7.6588Z" fill="#2447C4"/>
<path d="M6.00002 10.8249C6.47273 10.8249 6.85594 10.4417 6.85594 9.96895C6.85594 9.49624 6.47273 9.11304 6.00002 9.11304C5.52731 9.11304 5.1441 9.49624 5.1441 9.96895C5.1441 10.4417 5.52731 10.8249 6.00002 10.8249Z" fill="#2447C4"/>
<path d="M11.8124 4.1566C8.60699 0.95366 3.39301 0.95366 0.187615 4.1566C-0.0625383 4.40675 -0.0625383 4.81386 0.187615 5.06647C0.437768 5.31662 0.84488 5.31662 1.09749 5.06647C3.80012 2.36138 8.19988 2.36138 10.905 5.06647C11.03 5.19154 11.1944 5.25531 11.3587 5.25531C11.523 5.25531 11.6873 5.19154 11.8124 5.06647C12.0625 4.81632 12.0625 4.4092 11.8124 4.1566Z" fill="#2447C4"/>
</g>
</svg>
