<svg width="12" height="13" viewBox="0 0 12 13" fill="none" xmlns="http://www.w3.org/2000/svg">
<g opacity="0.4" clip-path="url(#clip0_712_2269)">
<path d="M11.4142 6.26579V6.03725C11.4142 5.61624 11.1963 5.24539 10.8674 5.03094V2.53794C10.8674 1.88201 10.3338 1.34839 9.6779 1.34839H2.32223C1.6663 1.34839 1.13265 1.88201 1.13265 2.53794V5.03091C0.803827 5.24537 0.585858 5.61622 0.585858 6.03723V6.26577C0.249155 6.35443 6.10352e-05 6.66146 6.10352e-05 7.02563V9.69976C6.10352e-05 10.1205 0.332452 10.4649 0.748397 10.4845V10.801C0.748397 10.9948 0.905499 11.1519 1.09928 11.1519C1.29306 11.1519 1.45016 10.9948 1.45016 10.801V10.4854H10.5499V10.801C10.5499 10.9948 10.707 11.1519 10.9008 11.1519C11.0946 11.1519 11.2517 10.9948 11.2517 10.801V10.4845C11.6677 10.4649 12.0001 10.1204 12.0001 9.69974V7.02563C12.0001 6.66144 11.751 6.35443 11.4142 6.26579V6.26579ZM1.83444 2.53794C1.83444 2.26897 2.05326 2.05015 2.32223 2.05015H9.6779C9.94687 2.05015 10.1657 2.26897 10.1657 2.53794V4.83638H9.69782V4.21791C9.69782 3.78502 9.34565 3.43283 8.91273 3.43283H7.02465C6.59176 3.43283 6.23957 3.78502 6.23957 4.21791V4.83638H5.76055V4.21791C5.76055 3.78502 5.40836 3.43283 4.97547 3.43283H3.08739C2.65448 3.43283 2.3023 3.78502 2.3023 4.21791V4.83638H1.83444V2.53794ZM8.99603 4.21789V4.75306C8.99603 4.799 8.95865 4.83636 8.91273 4.83636H7.02465C6.97872 4.83636 6.94136 4.79898 6.94136 4.75306V4.21789C6.94136 4.17195 6.97874 4.13459 7.02465 4.13459H8.91273C8.95867 4.13459 8.99603 4.17195 8.99603 4.21789ZM5.05876 4.21789V4.75306C5.05876 4.799 5.02138 4.83636 4.97547 4.83636H3.08739C3.04145 4.83636 3.00409 4.79898 3.00409 4.75306V4.21789C3.00409 4.17195 3.04148 4.13459 3.08739 4.13459H4.97547C5.02138 4.13459 5.05876 4.17195 5.05876 4.21789V4.21789ZM1.28765 6.03723C1.28765 5.76202 1.51155 5.53815 1.78675 5.53815H10.2134C10.4886 5.53815 10.7125 5.76205 10.7125 6.03723V6.23992H1.28765V6.03723ZM11.2983 9.69974C11.2983 9.746 11.2606 9.78364 11.2143 9.78364H0.785756C0.739491 9.78364 0.701827 9.746 0.701827 9.69974V7.02563C0.701827 6.97937 0.739467 6.94173 0.785756 6.94173H11.2144C11.2606 6.94173 11.2983 6.97937 11.2983 7.02563V9.69974H11.2983Z" fill="#2447C4"/>
</g>
<defs>
<clipPath id="clip0_712_2269">
<rect width="12" height="12" fill="white" transform="translate(6.10352e-05 0.25)"/>
</clipPath>
</defs>
</svg>
