<svg width="24" height="24" viewBox="0 0 24 24" fill="none" xmlns="http://www.w3.org/2000/svg">
<g clip-path="url(#clip0_101_565)">
<path d="M14.1988 12.0196L23.5439 2.67424C24.1521 2.06636 24.1521 1.0835 23.5439 0.475617C22.936 -0.132263 21.9532 -0.132263 21.3453 0.475617L11.9999 9.82103L2.65474 0.475617C2.04658 -0.132263 1.064 -0.132263 0.456124 0.475617C-0.152041 1.0835 -0.152041 2.06636 0.456124 2.67424L9.80126 12.0196L0.456124 21.3651C-0.152041 21.9729 -0.152041 22.9558 0.456124 23.5637C0.759068 23.8669 1.15739 24.0192 1.55543 24.0192C1.95348 24.0192 2.35152 23.8669 2.65474 23.5637L11.9999 14.2183L21.3453 23.5637C21.6485 23.8669 22.0466 24.0192 22.4446 24.0192C22.8426 24.0192 23.2407 23.8669 23.5439 23.5637C24.1521 22.9558 24.1521 21.9729 23.5439 21.3651L14.1988 12.0196Z" fill="#011B40"/>
</g>
<defs>
<clipPath id="clip0_101_565">
<rect width="24" height="24" fill="white"/>
</clipPath>
</defs>
</svg>
