<svg width="48" height="48" viewBox="0 0 48 48" fill="none" xmlns="http://www.w3.org/2000/svg">
<g clip-path="url(#clip0_135_1008)">
<path d="M40.8782 3.08114C42.9711 3.43198 44.3744 5.40755 44.0236 7.5004L41.619 21.7589C41.5281 22.3306 41.2682 22.8637 40.8264 23.3055L33.4694 31.5332C33.3913 31.6241 33.3654 31.6764 33.3395 31.7155C32.1438 34.1851 31.6107 36.9146 31.8056 39.631C31.9097 41.0089 31.4157 42.3737 30.4799 43.3871C29.5442 44.3884 28.2053 44.9733 26.8406 44.9733H17.1572C15.7924 44.9733 14.5708 44.037 14.2068 42.7113C13.3228 39.4878 13.1537 36.0565 13.7259 32.768C13.7645 32.5862 13.7518 32.339 13.5569 32.1181L5.69318 23.3055C5.30324 22.8637 5.04328 22.3438 4.9524 21.7721L2.56049 7.5004C2.22286 5.42075 3.61352 3.43198 5.69318 3.08114C7.78552 2.7303 9.78749 4.14686 10.1383 6.23972L12.2962 19.0812C12.2962 19.1594 12.3348 19.2111 12.3871 19.2761L15.6883 23.0069C15.8315 23.1628 16.0391 23.1887 16.1432 23.1887H30.3109C30.5581 23.1887 30.779 23.0978 30.9217 22.9419L34.1975 19.2761C34.2493 19.2111 34.2752 19.1594 34.2884 19.0812L36.4458 6.23972C36.628 5.22578 37.1738 4.34183 38.0055 3.74373C38.8503 3.14613 39.8643 2.91207 40.8782 3.08114ZM41.7749 7.13636C41.9312 6.2783 41.3463 5.45985 40.4883 5.31667C40.0724 5.25168 39.6566 5.34256 39.3185 5.58982C38.9676 5.83658 38.7468 6.20062 38.6686 6.61645L36.5107 19.4584C36.4199 19.9524 36.2122 20.3942 35.874 20.7709L32.6114 24.4494C32.0529 25.0866 31.208 25.4501 30.3241 25.4501H16.1564C15.3243 25.4501 14.5444 25.1125 14.0118 24.5144L10.71 20.7841V20.7709C10.6973 20.7582 10.6973 20.7582 10.6973 20.7582C10.3592 20.381 10.1383 19.9392 10.0601 19.4452L7.90281 6.60325C7.75963 5.7457 6.94066 5.16079 6.06991 5.30347C5.21236 5.44664 4.65335 6.25241 4.79602 7.12316L7.20062 21.3949C7.22702 21.5381 7.3047 21.6807 7.40879 21.798L15.2725 30.6107C15.8833 31.3123 16.1432 32.2354 15.9874 33.1579C15.4674 36.1215 15.6233 39.2151 16.4164 42.1137C16.5205 42.4646 16.8322 42.7113 17.1963 42.7113H26.8796C27.6463 42.7113 28.3485 42.3996 28.8684 41.8406C29.3751 41.2816 29.6351 40.5408 29.5833 39.7868C29.3619 36.6805 29.9859 33.5479 31.3507 30.7274C31.468 30.4807 31.6366 30.2466 31.8315 30.0258L39.1626 21.798C39.2794 21.6807 39.3444 21.5249 39.3703 21.4081L41.7749 7.13636Z" fill="#2447C4"/>
<path d="M38.3436 34.8999C38.3177 34.8999 38.2786 34.8999 38.2527 34.8867L38.0446 34.8476C37.9669 34.8349 37.9019 34.8085 37.8369 34.7826L37.6546 34.7049L37.4597 34.6267C37.4079 34.6135 37.3556 34.5876 37.3038 34.5485L36.9139 34.2886C36.8621 34.2627 36.823 34.2236 36.7839 34.185L36.6148 34.0159C36.6021 34.0027 36.5889 33.99 36.5757 33.9768L36.4198 33.8077C36.3939 33.7819 36.3807 33.756 36.3548 33.7169L36.2249 33.5219C36.2122 33.496 36.199 33.4828 36.1858 33.4569L36.0822 33.2619C36.069 33.2487 36.0558 33.2228 36.0431 33.1969L35.9522 33.002C35.939 32.9629 35.9258 32.9238 35.9131 32.8852L35.8608 32.6902C35.8608 32.6638 35.8608 32.6379 35.8481 32.612L35.809 32.4171C35.7958 32.3653 35.7831 32.3003 35.7958 32.2353L35.809 32.0403C35.8222 32.0013 35.8222 31.949 35.8349 31.9104L35.874 31.754C35.8872 31.7022 35.8999 31.6504 35.9258 31.5981L35.9908 31.4422C36.0299 31.3641 36.069 31.2991 36.1208 31.2341L36.2249 31.1041C36.2381 31.0914 36.2508 31.0782 36.2772 31.0523L36.3807 30.9482C36.4198 30.8964 36.4848 30.8573 36.5498 30.8182L36.7057 30.7274C36.7707 30.6883 36.8357 30.6624 36.9139 30.6365L37.0829 30.5974C37.122 30.5842 37.1479 30.5842 37.187 30.5715L37.3556 30.5456C37.3947 30.5324 37.4206 30.5324 37.4597 30.5324H37.6546C37.7196 30.5324 37.7719 30.5324 37.8237 30.5456L38.0319 30.5842C38.0705 30.5842 38.0969 30.5974 38.1354 30.6106L38.3304 30.6756C38.3568 30.6883 38.3954 30.7015 38.4345 30.7274L38.6427 30.8314C38.6554 30.8441 38.6686 30.8441 38.6818 30.8573L38.8767 30.9614C38.9153 30.9873 38.9417 31.0132 38.9803 31.0391L39.1753 31.1955C39.2017 31.2214 39.2276 31.2473 39.2535 31.2732L39.4225 31.4422C39.4352 31.4554 39.4484 31.4681 39.4616 31.4813L39.6175 31.6631C39.6302 31.6763 39.6434 31.689 39.6566 31.7154L39.7866 31.884C39.8125 31.9104 39.8252 31.9363 39.8516 31.9754L39.9551 32.1703C39.9815 32.1962 39.9942 32.2221 40.0074 32.2612L40.0983 32.4689C40.0983 32.4821 40.1115 32.4821 40.1115 32.4953L43.9845 30.6106C44.3744 30.4156 44.8034 30.4024 45.2193 30.5456C45.6224 30.6883 45.9474 30.9873 46.1291 31.3641L47.8188 34.8608C47.8188 34.8735 47.832 34.8735 47.832 34.8867C48.0138 35.2766 48.0402 35.6924 47.9488 36.0565C47.8188 36.4723 47.533 36.8104 47.1431 36.9922L41.7363 39.605C41.7099 39.6177 41.684 39.6309 41.6581 39.6441C41.6449 39.6441 41.6449 39.6568 41.6322 39.6568C41.619 39.67 41.5931 39.67 41.5672 39.6827L41.3981 39.735C41.359 39.7477 41.3199 39.7477 41.2813 39.7609L41.0864 39.7867C41.06 39.7999 41.0341 39.7999 40.995 39.7999H40.8C40.735 39.7999 40.6832 39.7867 40.6182 39.7741L40.4233 39.735C40.3842 39.735 40.3583 39.7218 40.3324 39.7091L40.1374 39.6441C40.1115 39.6441 40.0983 39.6441 40.0851 39.6309L39.8775 39.54C39.8252 39.5268 39.7734 39.5009 39.7216 39.4618L39.5266 39.3318C39.5134 39.3191 39.4875 39.3059 39.4743 39.2927L39.2794 39.1369C39.2667 39.1242 39.2535 39.111 39.2403 39.0978L39.0717 38.9419C39.0453 38.916 39.0194 38.8901 38.9935 38.8642L38.8376 38.6951C38.8244 38.6819 38.8117 38.6692 38.7985 38.656L38.6427 38.4611C38.6168 38.4352 38.5904 38.3961 38.5645 38.357L38.4604 38.162C38.4345 38.1361 38.4218 38.1102 38.4086 38.0711L38.3177 37.863C38.3045 37.8244 38.2918 37.7853 38.2786 37.733L38.2268 37.538C38.2268 37.5121 38.2136 37.473 38.2136 37.4471L38.1877 37.2522C38.1877 37.2004 38.1745 37.1481 38.1877 37.0963L38.2004 36.9272C38.2136 36.8754 38.2136 36.8363 38.2268 36.7972L38.2654 36.6155C38.2786 36.5632 38.2918 36.5246 38.3177 36.4723L38.3827 36.3296C38.3954 36.2773 38.4218 36.2382 38.4604 36.1864L38.5518 36.0565C38.5904 36.0174 38.6295 35.9656 38.6686 35.9265L38.7853 35.8097C38.8376 35.7574 38.8894 35.7183 38.9544 35.6797L39.0844 35.6015C39.1235 35.5757 39.1753 35.5498 39.2276 35.5366L39.3702 35.4848C39.4225 35.4716 39.4743 35.4584 39.5266 35.4457L39.7216 35.4198C39.7866 35.4066 39.8384 35.4066 39.9034 35.4198L40.0983 35.4457C40.1242 35.4457 40.1633 35.4457 40.1892 35.4584L40.3842 35.4975C40.4101 35.4975 40.4233 35.4975 40.4492 35.5107L40.6573 35.5757C40.6964 35.5883 40.7223 35.6015 40.7614 35.6147L40.9564 35.7056C41.0082 35.7183 41.0473 35.7447 41.0864 35.7706L41.2813 35.9006C41.294 35.9006 41.3072 35.9133 41.3199 35.9265L41.5022 36.0697C41.5149 36.0956 41.5281 36.1083 41.554 36.1215L41.7363 36.2773C41.7622 36.3032 41.7748 36.3164 41.8012 36.3423L41.9698 36.5246C41.983 36.5373 41.9962 36.5632 42.0221 36.5896L42.1521 36.7714C42.178 36.7972 42.1912 36.8231 42.2171 36.8622L42.3212 37.0572C42.3339 37.0704 42.3471 37.0963 42.3597 37.1222L42.4511 37.3172C42.4638 37.3431 42.4638 37.3563 42.477 37.3821L43.3478 36.9531L41.6972 33.5478L39.4484 34.6399L39.3443 34.7049C39.2794 34.7435 39.2144 34.7699 39.1367 34.7958L38.9676 34.8476C38.9285 34.8608 38.9026 34.8608 38.8635 34.8735L38.6945 34.8999C38.6554 34.9126 38.6295 34.9126 38.5904 34.9126C38.5777 34.9126 38.5645 34.9126 38.5518 34.9126L38.3436 34.8999ZM46.3114 35.5625L44.6735 32.1439L43.2178 32.8461L44.8684 36.2514L46.3114 35.5625ZM40.93 38.1229L40.8782 38.0193L40.865 37.9544L40.8264 37.863L40.7614 37.7462L40.6832 37.6421L40.5665 37.5121L40.4492 37.408L40.3065 37.3045L40.1892 37.2263L40.1115 37.1872L39.9815 37.1481L39.8643 37.1222L39.8252 37.1095V37.1222L39.8384 37.2004L39.8643 37.2913L39.9034 37.3953L39.9551 37.4862L40.0592 37.6162L40.1633 37.733L40.2801 37.8371L40.4101 37.9544L40.5142 38.0193L40.6314 38.0711L40.7614 38.1229L40.8264 38.1361H40.8914L40.93 38.1229ZM38.6036 33.236V33.2228L38.5904 33.1837L38.5645 33.0929L38.4995 32.9502L38.4477 32.8461L38.3695 32.742L38.2527 32.5988L38.1354 32.4821L38.0319 32.4039L37.9146 32.3389L37.7719 32.2612L37.6805 32.2353L37.5896 32.2089H37.5246L37.4856 32.2221L37.4988 32.2871L37.5246 32.378L37.5769 32.4821L37.6546 32.612L37.7328 32.7288L37.8369 32.8461L37.9278 32.937L38.1745 33.1061L38.3045 33.1579C38.3045 33.1579 38.3177 33.1579 38.3304 33.1711L38.4218 33.2101L38.4736 33.2228L38.5645 33.236H38.6036Z" fill="#2447C4"/>
<path d="M23.2794 6.59045C27.3473 6.59045 30.649 9.8917 30.649 13.9601C30.649 18.0286 27.3473 21.3298 23.2794 21.3298C19.2236 21.3298 15.9092 18.0286 15.9092 13.9601C15.9092 9.8917 19.2109 6.59045 23.2794 6.59045ZM28.3871 13.9601C28.3871 11.1397 26.0998 8.85187 23.2794 8.85187C20.4716 8.85187 18.1711 11.1397 18.1711 13.9601C18.1711 16.7806 20.4584 19.0684 23.2794 19.0684C26.0998 19.0684 28.3871 16.7806 28.3871 13.9601Z" fill="#2447C4"/>
<path d="M2.02787 36.8495L2.22283 36.7973C2.22283 36.7973 2.23553 36.7846 2.24873 36.7846L0.870754 32.7029C0.598104 31.8713 1.03983 30.9614 1.87149 30.6756L5.54998 29.4276C6.39484 29.1285 7.31789 29.5708 7.60374 30.4156L8.34451 32.5862C8.35771 32.6121 8.37041 32.6379 8.38361 32.677C8.39681 32.7161 8.39681 32.742 8.4095 32.7811L9.52752 36.0697C9.55341 36.1474 9.57931 36.2256 9.55341 36.3296L9.54021 36.4723C9.54021 36.5114 9.55341 36.5505 9.55341 36.6023V36.7714C9.55341 36.8231 9.55341 36.8754 9.54021 36.9272L9.50163 37.1222C9.50163 37.1613 9.48842 37.2004 9.47522 37.2395L9.41023 37.4345C9.41023 37.4603 9.39754 37.4862 9.38434 37.5121L9.29346 37.7071C9.28026 37.7203 9.26756 37.7462 9.25436 37.7721L9.15028 37.9671C9.12438 38.0062 9.09849 38.032 9.0726 38.0711L8.91672 38.2661C8.90352 38.292 8.87763 38.3179 8.85173 38.3443L8.68266 38.5129C8.66946 38.5261 8.65677 38.5393 8.64357 38.552L8.47449 38.7078C8.4486 38.7342 8.4227 38.7469 8.38361 38.7728L8.18864 38.9028C8.16275 38.916 8.13685 38.9419 8.09776 38.9551L7.88959 39.0592C7.87689 39.0592 7.86369 39.0592 7.85049 39.0719L7.65553 39.1628C7.61694 39.176 7.59054 39.1892 7.55195 39.2019L7.34378 39.2668C7.30469 39.28 7.2529 39.28 7.2006 39.2927L7.00563 39.3191C6.97974 39.3318 6.95385 39.3318 6.91475 39.3318H6.71978C6.68069 39.3318 6.6289 39.3318 6.5898 39.3191L6.40804 39.2927C6.35574 39.2927 6.30395 39.28 6.25216 39.2542L6.09578 39.1892C6.0572 39.176 6.0049 39.1501 5.96581 39.1242L5.80993 39.0328C5.75815 39.0069 5.69316 38.9551 5.64086 38.9028L5.53728 38.7992C5.49819 38.7601 5.47229 38.721 5.4332 38.6692L5.34232 38.5393C5.30322 38.487 5.27733 38.4352 5.25093 38.3702L5.18594 38.2143C5.17324 38.162 5.16004 38.1229 5.14735 38.0711L5.10825 37.9021C5.10825 37.8503 5.09505 37.8112 5.09505 37.7594V37.5903C5.09505 37.538 5.09505 37.4994 5.10825 37.4603L5.13415 37.2654C5.14735 37.2263 5.16004 37.1745 5.17324 37.1222L5.23823 36.9272C5.23823 36.9013 5.25093 36.8754 5.26413 36.8495L5.35501 36.6546C5.36821 36.6414 5.3809 36.6155 5.3941 36.5896L5.51088 36.3814C5.53728 36.3423 5.56318 36.3032 5.58907 36.2646L5.73225 36.0824C5.74494 36.0565 5.77084 36.0306 5.79724 36.0047L5.96581 35.8356C5.99221 35.8224 6.0181 35.7965 6.044 35.7706L6.23896 35.6148C6.25216 35.6016 6.26486 35.5884 6.29075 35.5757L6.48572 35.4457C6.51212 35.4325 6.52482 35.4198 6.55071 35.4066L6.74568 35.3025C6.77208 35.2766 6.79797 35.2634 6.83707 35.2507L7.04473 35.1598C7.05793 35.1466 7.08382 35.1466 7.09702 35.1334L7.29199 35.0684C7.33058 35.0557 7.35698 35.0557 7.39557 35.0425L7.03204 33.9768L3.47032 35.1984L4.35428 37.798C4.36748 37.863 4.38017 37.928 4.39337 37.993L4.41927 38.1229C4.43247 38.1752 4.43247 38.227 4.43247 38.2793V38.5002C4.43247 38.5393 4.43247 38.5652 4.41927 38.6043L4.39337 38.7992C4.38017 38.8378 4.36748 38.8901 4.35428 38.9419L4.28929 39.1369C4.28929 39.1628 4.27609 39.1892 4.26339 39.2151L4.17251 39.41C4.15931 39.4618 4.13342 39.5009 4.10752 39.54L3.97754 39.735C3.97754 39.7477 3.96434 39.7609 3.95114 39.7741L3.82116 39.9426C3.79527 39.969 3.76937 40.0076 3.74348 40.034L3.57441 40.2026C3.56121 40.2158 3.54851 40.229 3.53531 40.2417L3.36624 40.3976C3.34034 40.424 3.31445 40.4366 3.27535 40.4625L3.08039 40.5925C3.05449 40.6057 3.0286 40.6316 2.9895 40.6448L2.78134 40.7489C2.75544 40.7489 2.74275 40.7616 2.71635 40.7748L2.50869 40.8657C2.49548 40.8789 2.46959 40.8789 2.45639 40.8916L2.26142 40.9566C2.22283 40.9698 2.19643 40.9698 2.15784 40.9825L1.94968 41.0216C1.89789 41.0216 1.84559 41.0348 1.7938 41.0348H1.59884C1.55974 41.0348 1.50795 41.0348 1.45566 41.0216L1.27389 40.9825C1.248 40.9825 1.2089 40.9698 1.16981 40.9566L1.00073 40.9048C0.92305 40.8789 0.858061 40.8398 0.793071 40.8007L0.663093 40.7098C0.598104 40.6707 0.533115 40.6189 0.480819 40.5539L0.376734 40.424C0.35084 40.3976 0.338147 40.359 0.311745 40.3326L0.220862 40.1899C0.194968 40.1508 0.169073 40.099 0.143179 40.034L0.0908834 39.8908C0.0908834 39.8649 0.0781901 39.8391 0.0649892 39.8L0.0258942 39.6309C0.0132009 39.5659 0 39.5009 0 39.4359V39.2668C0 39.2277 0 39.176 0.0132009 39.1369L0.0517883 38.9419C0.0649892 38.9028 0.0781901 38.8642 0.0908834 38.8119L0.155873 38.617C0.169073 38.5779 0.181767 38.5393 0.208168 38.5002L0.299052 38.3179C0.299052 38.3052 0.311745 38.2793 0.324946 38.2661L0.441724 38.0711C0.468125 38.032 0.480819 38.0062 0.506713 37.9803L0.649892 37.798C0.663093 37.798 0.663093 37.7853 0.675786 37.7721L0.818965 37.603C0.84486 37.5771 0.870754 37.538 0.909849 37.5121L1.09162 37.3563C1.10482 37.3304 1.14391 37.3172 1.16981 37.2913L1.36477 37.1613C1.39067 37.1481 1.41656 37.1222 1.45566 37.1095L1.66383 37.0054C1.68972 37.0054 1.70292 36.9922 1.72881 36.9795L1.93648 36.8881C1.96288 36.8754 1.98877 36.8622 2.02787 36.8495ZM7.94188 36.7582L7.92868 36.6805H7.8378L7.75961 36.6932L7.66873 36.7196L7.52555 36.7846L7.40877 36.8495L7.26559 36.9404L7.13561 37.0445L7.03204 37.1481L6.96705 37.2395L6.90206 37.3563L6.84976 37.473L6.82387 37.5644L6.81067 37.6294V37.6812H6.91475L6.99294 37.668L7.08382 37.6421L7.2138 37.5771L7.36967 37.4994L7.47376 37.4213L7.59054 37.3172L7.70782 37.2004L7.7855 37.0963L7.85049 36.9922L7.90279 36.8622L7.94188 36.7582ZM6.53802 32.4171L6.0572 30.9873L2.49548 32.2089L2.9763 33.6387L6.53802 32.4171ZM2.79454 38.487V38.422L2.78134 38.3961H2.71635L2.61277 38.422L2.50869 38.4479L2.36551 38.5002L2.22283 38.5652L2.11875 38.6428L2.02787 38.721L1.93648 38.8378L1.8329 38.9678L1.75471 39.0978L1.70292 39.2019L1.67652 39.28L1.66383 39.3577L1.67652 39.3841H1.72881L1.8197 39.3577L1.93648 39.3191L2.09286 39.2542L2.23553 39.1892L2.33961 39.111L2.45639 39.0069L2.57367 38.8901L2.65136 38.786L2.72955 38.6692L2.76864 38.5779L2.79454 38.487Z" fill="#2447C4"/>
</g>
<defs>
<clipPath id="clip0_135_1008">
<rect width="48" height="48" fill="white"/>
</clipPath>
</defs>
</svg>
