<svg width="24" height="24" viewBox="0 0 24 24" fill="none" xmlns="http://www.w3.org/2000/svg">
<g opacity="0.5">
<path d="M23.9995 7.59047C23.9995 6.99708 23.7684 6.43913 23.3487 6.01964L22.2352 4.90613L22.8024 4.33889C22.8056 4.3358 22.8088 4.33266 22.812 4.32952C23.6781 3.46341 23.6781 2.05397 22.812 1.18758C22.3924 0.767953 21.8344 0.536859 21.241 0.536859C20.6477 0.536859 20.0897 0.767953 19.67 1.18748C19.6665 1.19105 19.6629 1.19466 19.6594 1.19831L19.0934 1.76423L17.9799 0.650672C17.5603 0.231094 17.0025 0 16.409 0C15.8155 0 15.2576 0.231141 14.838 0.650766C14.6179 0.870984 14.454 1.12636 14.3458 1.39898C14.0005 1.18725 13.6028 1.07377 13.1876 1.07377C12.5942 1.07377 12.0362 1.30486 11.6164 1.72462C10.7505 2.59078 10.7505 4.00017 11.6165 4.86647L13.8038 7.05366L7.053 13.8045L4.86567 11.6172C4.44614 11.1976 3.88823 10.9665 3.29489 10.9665C2.70145 10.9665 2.1435 11.1976 1.72364 11.6174C0.984887 12.3562 0.876793 13.49 1.39837 14.3451C1.12148 14.4554 0.867137 14.6215 0.650012 14.8387C-0.216004 15.7048 -0.216051 17.1142 0.650059 17.9805L1.76348 19.0939L1.18692 19.6704C0.767293 20.0901 0.536153 20.648 0.536153 21.2414C0.536153 21.8348 0.767293 22.3928 1.18687 22.8122C1.60645 23.2319 2.1644 23.463 2.75789 23.463C3.34598 23.463 3.89915 23.236 4.31742 22.8236C4.32131 22.8199 4.32515 22.8161 4.32895 22.8123L4.90542 22.2358L6.01894 23.3493C6.43842 23.7689 6.99633 23.9999 7.58981 24H7.58991C8.18339 24 8.74139 23.7688 9.16111 23.3491C9.38119 23.129 9.54506 22.8736 9.6533 22.6012C9.99844 22.8127 10.396 22.9262 10.8111 22.9262H10.8112C11.4045 22.9262 11.9626 22.6951 12.3823 22.2755C12.8019 21.8558 13.0329 21.2979 13.0329 20.7045C13.0329 20.111 12.8018 19.5531 12.3823 19.1336L10.1949 16.9462L16.9459 10.1955L19.1332 12.3826C19.5528 12.8022 20.1107 13.0333 20.7041 13.0333H20.7043C21.2975 13.0333 21.8555 12.8022 22.275 12.3827C22.6948 11.9631 22.9259 11.4052 22.926 10.8117C22.926 10.3968 22.8127 9.99956 22.6013 9.65452C22.8778 9.54422 23.1319 9.37823 23.3489 9.16134C23.7684 8.74177 23.9995 8.18386 23.9995 7.59047V7.59047ZM3.34406 21.8084C3.34083 21.8115 3.33754 21.8148 3.33431 21.818C3.18037 21.972 2.97567 22.0568 2.75789 22.0568C2.54011 22.0568 2.33531 21.972 2.18123 21.8179C2.02725 21.6639 1.9424 21.4592 1.9424 21.2414C1.9424 21.0236 2.02725 20.8188 2.18128 20.6648L2.75775 20.0883L3.91101 21.2415L3.34406 21.8084ZM20.0878 2.75864L20.6639 2.18259C20.6666 2.17988 20.6693 2.1772 20.6719 2.17448C20.8252 2.02519 21.0268 1.94311 21.2411 1.94311C21.4589 1.94311 21.6637 2.02795 21.8176 2.18184C22.1333 2.49769 22.1356 3.01008 21.8243 3.3285C21.8218 3.33084 21.8194 3.33323 21.817 3.33563L21.2409 3.91172L20.6644 3.33516L20.0878 2.75864ZM15.8325 1.64503C15.9864 1.49105 16.1912 1.40625 16.409 1.40625C16.6268 1.40625 16.8316 1.49105 16.9856 1.64508L19.67 4.32956L20.7437 5.40333C20.7438 5.40342 20.7439 5.40352 20.7441 5.40361L22.3545 7.01405C22.5084 7.16803 22.5933 7.37273 22.5933 7.59047C22.5933 7.80825 22.5084 8.01309 22.3545 8.16703C22.2004 8.32106 21.9956 8.40591 21.7778 8.40591C21.5604 8.40591 21.356 8.3213 21.2021 8.16783L15.8313 2.79717C15.5146 2.47917 15.5149 1.96266 15.8325 1.64503V1.64503ZM8.16665 22.3548C8.01258 22.5088 7.80773 22.5937 7.58981 22.5937C7.37198 22.5937 7.16719 22.5089 7.01325 22.355L5.4029 20.7446C5.40276 20.7445 5.40267 20.7443 5.40258 20.7443L5.0609 20.4026L1.64451 16.9862C1.32665 16.6682 1.32661 16.151 1.64451 15.833C1.79854 15.6789 2.00329 15.594 2.22112 15.594C2.43862 15.594 2.64304 15.6787 2.79703 15.8324L8.16956 21.205C8.48423 21.5232 8.48339 22.038 8.16665 22.3548V22.3548ZM11.6266 20.7045C11.6266 20.9223 11.5418 21.1272 11.3879 21.2811C11.2338 21.4351 11.029 21.52 10.8111 21.52C10.8111 21.52 10.8111 21.52 10.8111 21.52C10.5932 21.52 10.3884 21.4351 10.2344 21.2812L9.16697 20.2137C9.16491 20.2117 9.16303 20.2095 9.16097 20.2074L3.79195 14.8386L3.79181 14.8385L2.71814 13.7648C2.40023 13.4469 2.40023 12.9297 2.71804 12.6118C2.87217 12.4577 3.07706 12.3728 3.29493 12.3728C3.51267 12.3728 3.71737 12.4576 3.87131 12.6115L6.55537 15.2955C6.55551 15.2957 6.55565 15.2959 6.55584 15.2961L8.56912 17.3093L11.388 20.128C11.5418 20.282 11.6266 20.4867 11.6266 20.7045ZM9.20048 15.9519L8.62387 15.3754L8.04736 14.7988L14.7982 8.04797L15.9515 9.20119L9.20048 15.9519ZM21.2806 11.3882C21.1266 11.5423 20.9219 11.6271 20.7042 11.6271H20.7041C20.4863 11.6271 20.2815 11.5423 20.1274 11.3883L17.4448 8.70577C17.4442 8.70516 17.4437 8.7045 17.4431 8.70389L15.2954 6.55636C15.2951 6.55603 15.2947 6.55575 15.2944 6.55542L12.611 3.87216C12.2932 3.55416 12.2932 3.03675 12.6109 2.71884C12.765 2.56477 12.9698 2.47992 13.1877 2.47992C13.4055 2.47992 13.6103 2.56477 13.7643 2.7188L14.835 3.78942C14.836 3.79045 14.8369 3.79158 14.838 3.79256L20.207 9.16144C20.2075 9.16195 20.208 9.16242 20.2085 9.16284L21.2807 10.2351C21.4348 10.3891 21.5197 10.5938 21.5197 10.8117C21.5196 11.0295 21.4348 11.2342 21.2806 11.3882V11.3882Z" fill="#2447C4"/>
</g>
</svg>
