<svg width="16" height="16" viewBox="0 0 16 16" fill="none" xmlns="http://www.w3.org/2000/svg">
<path d="M15.9996 5.06031C15.9996 4.66472 15.8455 4.29275 15.5658 4.01309L14.8234 3.27075L15.2016 2.89259C15.2037 2.89053 15.2058 2.88844 15.2079 2.88634C15.7854 2.30894 15.7854 1.36931 15.2079 0.791719C14.9282 0.511969 14.5563 0.357906 14.1607 0.357906C13.7651 0.357906 13.3931 0.511969 13.1133 0.791656C13.1109 0.794031 13.1086 0.796438 13.1062 0.798875L12.7289 1.17616L11.9866 0.433781C11.7068 0.154062 11.3349 0 10.9393 0C10.5437 0 10.1717 0.154094 9.892 0.433844C9.74522 0.580656 9.63597 0.750906 9.56381 0.932656C9.33366 0.7915 9.06853 0.715844 8.79172 0.715844C8.39609 0.715844 8.02412 0.869906 7.74425 1.14975C7.16697 1.72719 7.16697 2.66678 7.74431 3.24431L9.2025 4.70244L4.70196 9.20297L3.24375 7.74478C2.96406 7.46509 2.59212 7.31103 2.19656 7.31103C1.80093 7.31103 1.42896 7.46509 1.14906 7.74491C0.656556 8.23747 0.584493 8.99334 0.932212 9.56338C0.747618 9.63694 0.578056 9.74769 0.433306 9.89247C-0.144038 10.4699 -0.14407 11.4094 0.433337 11.987L1.17562 12.7292L0.791243 13.1136C0.511493 13.3934 0.357399 13.7653 0.357399 14.1609C0.357399 14.5566 0.511493 14.9285 0.791212 15.2082C1.07093 15.4879 1.4429 15.642 1.83856 15.642C2.23062 15.642 2.5994 15.4907 2.87824 15.2157C2.88084 15.2133 2.8834 15.2107 2.88593 15.2082L3.27025 14.8239L4.01259 15.5662C4.29225 15.8459 4.66418 15.9999 5.05984 16H5.0599C5.45556 16 5.82756 15.8459 6.10737 15.5661C6.25409 15.4193 6.36334 15.2491 6.4355 15.0674C6.66559 15.2085 6.93062 15.2841 7.20737 15.2842H7.20743C7.603 15.2842 7.97503 15.1301 8.25484 14.8503C8.53456 14.5706 8.68859 14.1986 8.68859 13.803C8.68859 13.4073 8.53453 13.0354 8.25481 12.7557L6.79659 11.2975L11.2972 6.797L12.7554 8.25509C13.0352 8.53481 13.4071 8.68884 13.8027 8.68888H13.8028C14.1983 8.68888 14.5703 8.53481 14.85 8.25513C15.1298 7.97541 15.2839 7.60344 15.2839 7.20778C15.2839 6.93122 15.2084 6.66638 15.0675 6.43634C15.2518 6.36281 15.4212 6.25216 15.5659 6.10756C15.8456 5.82784 15.9996 5.45591 15.9996 5.06031ZM2.22934 14.5389C2.22718 14.541 2.22499 14.5432 2.22284 14.5453C2.12021 14.648 1.98374 14.7045 1.83856 14.7045C1.69337 14.7045 1.55684 14.648 1.45412 14.5452C1.35146 14.4426 1.2949 14.3061 1.2949 14.1609C1.2949 14.0157 1.35146 13.8792 1.45415 13.7765L1.83846 13.3922L2.60731 14.161L2.22934 14.5389ZM13.3918 1.83909L13.7759 1.45506C13.7777 1.45325 13.7795 1.45147 13.7812 1.44966C13.8834 1.35012 14.0178 1.29541 14.1607 1.29541C14.3059 1.29541 14.4424 1.35197 14.545 1.45456C14.7555 1.66513 14.757 2.00672 14.5495 2.219C14.5478 2.22056 14.5462 2.22216 14.5447 2.22375L14.1606 2.60781L13.7763 2.22344L13.3918 1.83909ZM10.555 1.09669C10.6576 0.994031 10.7941 0.9375 10.9393 0.9375C11.0845 0.9375 11.221 0.994031 11.3237 1.09672L13.1133 2.88637L13.8291 3.60222C13.8292 3.60228 13.8293 3.60234 13.8293 3.60241L14.9029 4.67603C15.0056 4.77869 15.0622 4.91516 15.0622 5.06031C15.0622 5.2055 15.0056 5.34206 14.903 5.44469C14.8003 5.54737 14.6637 5.60394 14.5185 5.60394C14.3736 5.60394 14.2373 5.54753 14.1347 5.44522L10.5542 1.86478C10.3431 1.65278 10.3432 1.30844 10.555 1.09669ZM5.4444 14.9032C5.34168 15.0059 5.20512 15.0625 5.05984 15.0625C4.91462 15.0624 4.77809 15.0059 4.67546 14.9033L3.6019 13.8298C3.60181 13.8297 3.60175 13.8296 3.60168 13.8295L3.3739 13.6018L1.09631 11.3241C0.8844 11.1122 0.884369 10.7673 1.09631 10.5553C1.19899 10.4526 1.33549 10.396 1.48071 10.396C1.62571 10.396 1.76199 10.4525 1.86465 10.5549L5.44634 14.1367C5.65612 14.3488 5.65556 14.692 5.4444 14.9032ZM7.75103 13.803C7.75103 13.9482 7.6945 14.0848 7.59187 14.1874C7.48915 14.2901 7.35262 14.3467 7.20737 14.3467C7.20737 14.3467 7.20737 14.3467 7.20734 14.3467C7.06212 14.3467 6.92556 14.2901 6.8229 14.1874L6.11128 13.4758C6.1099 13.4744 6.10865 13.473 6.10728 13.4716L2.52793 9.89241L2.52784 9.89231L1.81206 9.17653C1.60012 8.96462 1.60012 8.61978 1.81199 8.40784C1.91474 8.30513 2.05134 8.24853 2.19659 8.24853C2.34174 8.24853 2.47821 8.30506 2.58084 8.40769L4.37021 10.197C4.37031 10.1971 4.3704 10.1973 4.37053 10.1974L5.71272 11.5395L7.59193 13.4187C7.69453 13.5213 7.75103 13.6578 7.75103 13.803ZM6.13362 10.6346L5.74922 10.2503L5.36487 9.86588L9.86544 5.36531L10.6343 6.13413L6.13362 10.6346ZM14.1871 7.59216C14.0844 7.69484 13.9479 7.75141 13.8028 7.75141H13.8027C13.6575 7.75141 13.5209 7.69484 13.4183 7.59219L11.6298 5.80384C11.6294 5.80344 11.6291 5.803 11.6287 5.80259L10.1969 4.37091C10.1967 4.37069 10.1964 4.3705 10.1962 4.37028L8.40731 2.58144C8.1954 2.36944 8.19541 2.0245 8.40722 1.81256C8.50994 1.70984 8.6465 1.65328 8.79175 1.65328C8.93694 1.65328 9.0735 1.70984 9.17619 1.81253L9.88997 2.52628C9.89062 2.52697 9.89125 2.52772 9.89194 2.52837L13.4713 6.10763C13.4717 6.10797 13.472 6.10828 13.4723 6.10856L14.1871 6.82338C14.2898 6.92606 14.3464 7.06256 14.3464 7.20778C14.3464 7.353 14.2898 7.48947 14.1871 7.59216Z" fill="white"/>
</svg>
