<svg width="32" height="33" viewBox="0 0 32 33" fill="none" xmlns="http://www.w3.org/2000/svg">
<path d="M31.84 16.98C31.52 16.18 30.56 15.7 29.76 16.02L24.64 17.94L21.6 9.62L26.72 7.7C27.5201 7.38 28 6.42 27.68 5.62C27.36 4.82 26.4 4.34 25.6 4.66L20.48 6.58L18.56 1.46C18.24 0.659999 17.28 0.179999 16.48 0.499999C15.68 0.979999 15.2 1.78 15.52 2.74L17.44 7.86L9.12004 10.9L7.20004 5.78C6.88004 4.98 6.08004 4.5 5.12004 4.82C4.32004 5.14 4.00004 6.1 4.32004 6.9L6.24004 12.02L1.12004 13.94C0.160039 14.26 -0.159961 15.22 0.160039 16.02C0.320039 16.66 0.960039 17.14 1.60004 17.14C1.76004 17.14 1.92004 17.14 2.08004 16.98L7.20004 15.06L10.24 23.38L5.12004 25.3C4.32004 25.62 3.84004 26.58 4.16004 27.38C4.32004 28.02 4.96004 28.5 5.60004 28.5C5.76004 28.5 5.92004 28.5 6.08004 28.34L11.2 26.42L13.12 31.54C13.6 32.02 14.24 32.5 14.88 32.5C15.04 32.5 15.2 32.5 15.36 32.34C16.16 32.02 16.64 31.06 16.32 30.26L14.4 25.14L22.72 22.1L24.64 27.22C24.8 27.86 25.44 28.34 26.08 28.34C26.24 28.34 26.4 28.34 26.56 28.18C27.36 27.86 27.84 26.9 27.5201 26.1L25.6 20.98L30.7201 19.06C31.8401 18.74 32.16 17.78 31.84 16.98ZM13.44 22.26L10.24 13.94L18.56 10.9L21.6 19.22L13.44 22.26Z" fill="#2447C4"/>
</svg>
