<svg width="16" height="16" viewBox="0 0 16 16" fill="none" xmlns="http://www.w3.org/2000/svg">
<path d="M13.36 16H2.64C1.2 16 0 14.784 0 13.328V7.488C0 6.752 0.32 6.032 0.88 5.536L6.24 0.672C7.28 -0.224 8.72 -0.224 9.76 0.672L15.12 5.536C15.68 6.016 16 6.752 16 7.488V13.328C15.92 14.864 14.8 16 13.36 16ZM8 1.648C7.76 1.648 7.52 1.728 7.28 1.888L1.92 6.752C1.68 6.912 1.6 7.232 1.6 7.568V13.408C1.6 13.968 2.08 14.464 2.64 14.464H13.28C13.84 14.464 14.32 13.984 14.32 13.408V7.568C14.32 7.248 14.16 7.008 14 6.752L8.64 1.888C8.48 1.728 8.24 1.648 8 1.648Z" fill="white"/>
</svg>
