<svg width="38" height="48" viewBox="0 0 38 48" fill="none" xmlns="http://www.w3.org/2000/svg">
<path d="M37.7434 1.52934C37.6139 0.94997 37.1346 0.514313 36.5455 0.440626C30.7415 -0.284812 25.3799 -0.113999 20.6096 0.948282C14.5349 2.30081 9.32741 5.11369 5.13088 9.30956C-1.41353 15.8605 -1.41353 26.5198 5.13154 33.0713C5.76285 33.7025 6.43626 34.2762 7.14454 34.7919V46.5938C7.14454 47.3704 7.77416 48 8.55079 48C9.32741 48 9.95704 47.3704 9.95704 46.5938V36.4461C12.1402 37.4562 14.5362 37.9894 17.015 37.9894C21.5062 37.9894 25.7247 36.2425 28.8929 33.0713C33.8461 28.1183 32.8203 21.294 32.4828 17.4642C31.9674 11.6173 31.5222 6.56775 37.123 3.02447C37.6245 2.70703 37.873 2.10881 37.7434 1.52934ZM7.11997 11.2979C12.0729 6.34594 18.509 3.55041 26.3277 2.93822C22.9742 4.572 19.7337 6.95466 16.9043 9.94125C11.3567 15.7971 8.00779 23.2667 7.29116 31.2495C1.6866 25.8293 1.60025 16.8232 7.11997 11.2979ZM29.681 17.7113C30.1225 22.7183 30.5393 27.4476 26.9035 31.083C24.2661 33.723 20.7543 35.1769 17.0148 35.1769C14.5027 35.1769 12.0929 34.5198 9.98085 33.2889C10.2693 25.2669 13.4255 17.7028 18.946 11.8754C21.4825 9.198 24.4536 6.98691 27.5383 5.48119C29.0422 4.74703 30.5595 4.18659 32.0489 3.80991C30.9435 5.22544 30.1946 6.8445 29.786 8.69203C29.1425 11.6024 29.4163 14.708 29.681 17.7113Z" fill="#2447C4" fill-opacity="0.5"/>
</svg>
