<svg width="24" height="24" viewBox="0 0 24 24" fill="none" xmlns="http://www.w3.org/2000/svg">
<g opacity="0.5" clip-path="url(#clip0_143_960)">
<path d="M21.3717 0.764649C21.307 0.474962 21.0673 0.257134 20.7727 0.22029C17.8708 -0.142429 15.1899 -0.0570225 12.8048 0.474118C9.76747 1.15038 7.16371 2.55682 5.06544 4.65476C1.79324 7.93024 1.79324 13.2599 5.06577 16.5356C5.38142 16.8512 5.71813 17.1381 6.07227 17.3959V23.2969C6.07227 23.6852 6.38708 24 6.77539 24C7.16371 24 7.47852 23.6852 7.47852 23.2969V18.223C8.5701 18.7281 9.76808 18.9947 11.0075 18.9947C13.2531 18.9947 15.3623 18.1212 16.9464 16.5356C19.4231 14.0591 18.9102 10.647 18.7414 8.73209C18.4837 5.80863 18.2611 3.28385 21.0615 1.51221C21.3123 1.35349 21.4365 1.05438 21.3717 0.764649ZM6.05999 5.64893C8.53644 3.17295 11.7545 1.77518 15.6638 1.46909C13.9871 2.28598 12.3668 3.47731 10.9521 4.9706C8.17836 7.89851 6.50389 11.6333 6.14558 15.6247C3.3433 12.9146 3.30013 8.41156 6.05999 5.64893ZM17.3405 8.8556C17.5612 11.3591 17.7696 13.7238 15.9517 15.5415C14.6331 16.8615 12.8772 17.5884 11.0074 17.5884C9.75135 17.5884 8.54643 17.2599 7.49043 16.6444C7.63466 12.6334 9.21275 8.85138 11.973 5.93768C13.2412 4.59898 14.7268 3.49343 16.2691 2.74057C17.0211 2.37349 17.7798 2.09327 18.5244 1.90493C17.9718 2.6127 17.5973 3.42223 17.393 4.34599C17.0713 5.80118 17.2081 7.35396 17.3405 8.8556Z" fill="#2447C4"/>
</g>
<defs>
<clipPath id="clip0_143_960">
<rect width="24" height="24" fill="white"/>
</clipPath>
</defs>
</svg>
