<svg width="16" height="16" viewBox="0 0 16 16" fill="white" xmlns="http://www.w3.org/2000/svg">
<g>
<path d="M4 0.5C2.0705 0.5 0.500003 2.2945 0.500003 4.5C0.482811 5.22532 0.659007 5.94214 1.01049 6.57683C1.36198 7.21153 1.87608 7.74122 2.5 8.1115V14C2.5 14.3978 2.65804 14.7794 2.93934 15.0607C3.22065 15.342 3.60218 15.5 4 15.5C4.39783 15.5 4.77936 15.342 5.06066 15.0607C5.34197 14.7794 5.5 14.3978 5.5 14V8.1115C6.12392 7.74122 6.63802 7.21153 6.98951 6.57683C7.341 5.94214 7.51719 5.22532 7.5 4.5C7.5 2.2945 5.9295 0.5 4 0.5ZM4.809 7.3345C4.71756 7.37229 4.6394 7.43637 4.58439 7.51861C4.52939 7.60085 4.50002 7.69756 4.5 7.7965V14C4.5 14.1326 4.44732 14.2598 4.35355 14.3536C4.25979 14.4473 4.13261 14.5 4 14.5C3.86739 14.5 3.74022 14.4473 3.64645 14.3536C3.55268 14.2598 3.5 14.1326 3.5 14V7.7965C3.49999 7.69756 3.47062 7.60085 3.41561 7.51861C3.36061 7.43637 3.28244 7.37229 3.191 7.3345C2.66394 7.07778 2.22322 6.67287 1.92285 6.16939C1.62249 5.66592 1.47554 5.08575 1.5 4.5C1.5 2.8455 2.6215 1.5 4 1.5C5.3785 1.5 6.5 2.8455 6.5 4.5C6.52447 5.08575 6.37751 5.66592 6.07715 6.16939C5.77679 6.67287 5.33607 7.07778 4.809 7.3345Z" fill="white"/>
<path d="M15 0.5C14.8674 0.5 14.7402 0.552678 14.6464 0.646447C14.5527 0.740215 14.5 0.867392 14.5 1V6C14.5 6.39782 14.342 6.77936 14.0607 7.06066C13.7794 7.34196 13.3978 7.5 13 7.5C12.8674 7.5 12.7402 7.55268 12.6464 7.64645C12.5527 7.74021 12.5 7.86739 12.5 8V14C12.5 14.1326 12.4473 14.2598 12.3536 14.3536C12.2598 14.4473 12.1326 14.5 12 14.5C11.8674 14.5 11.7402 14.4473 11.6464 14.3536C11.5527 14.2598 11.5 14.1326 11.5 14V8C11.5 7.86739 11.4473 7.74021 11.3536 7.64645C11.2598 7.55268 11.1326 7.5 11 7.5C10.6022 7.5 10.2206 7.34196 9.93934 7.06066C9.65804 6.77936 9.5 6.39782 9.5 6V1C9.5 0.867392 9.44732 0.740215 9.35355 0.646447C9.25979 0.552678 9.13261 0.5 9 0.5C8.86739 0.5 8.74021 0.552678 8.64645 0.646447C8.55268 0.740215 8.5 0.867392 8.5 1V6C8.50063 6.57613 8.69992 7.13441 9.06425 7.58072C9.42858 8.02702 9.93566 8.33404 10.5 8.45V14C10.5 14.3978 10.658 14.7794 10.9393 15.0607C11.2206 15.342 11.6022 15.5 12 15.5C12.3978 15.5 12.7794 15.342 13.0607 15.0607C13.342 14.7794 13.5 14.3978 13.5 14V8.45C14.0643 8.33404 14.5714 8.02702 14.9358 7.58072C15.3001 7.13441 15.4994 6.57613 15.5 6V1C15.5 0.867392 15.4473 0.740215 15.3536 0.646447C15.2598 0.552678 15.1326 0.5 15 0.5Z" fill="white"/>
<path d="M11 6.5C11.1326 6.5 11.2598 6.44732 11.3536 6.35355C11.4473 6.25979 11.5 6.13261 11.5 6V1C11.5 0.867392 11.4473 0.740215 11.3536 0.646447C11.2598 0.552678 11.1326 0.5 11 0.5C10.8674 0.5 10.7402 0.552678 10.6464 0.646447C10.5527 0.740215 10.5 0.867392 10.5 1V6C10.5 6.13261 10.5527 6.25979 10.6464 6.35355C10.7402 6.44732 10.8674 6.5 11 6.5Z" fill="white"/>
<path d="M13 6.5C13.1326 6.5 13.2598 6.44732 13.3536 6.35355C13.4473 6.25979 13.5 6.13261 13.5 6V1C13.5 0.867392 13.4473 0.740215 13.3536 0.646447C13.2598 0.552678 13.1326 0.5 13 0.5C12.8674 0.5 12.7402 0.552678 12.6464 0.646447C12.5527 0.740215 12.5 0.867392 12.5 1V6C12.5 6.13261 12.5527 6.25979 12.6464 6.35355C12.7402 6.44732 12.8674 6.5 13 6.5Z" fill="white"/>
</g>
</svg>
