<svg width="16" height="16" viewBox="0 0 16 16" fill="none" xmlns="http://www.w3.org/2000/svg">
<path d="M13.8879 2.86195L11.2212 0.195264C11.2211 0.195139 11.221 0.195077 11.2209 0.194952C11.2054 0.179545 11.1892 0.164952 11.1724 0.151108C11.1646 0.144764 11.1565 0.139264 11.1486 0.133327C11.1391 0.126233 11.1298 0.118889 11.12 0.112295C11.1105 0.105952 11.1006 0.100452 11.0909 0.0946392C11.0819 0.0892954 11.0732 0.0837017 11.064 0.0787642C11.0541 0.0734517 11.0439 0.0689517 11.0337 0.0641704C11.0241 0.0596392 11.0147 0.0548579 11.0049 0.0507642C10.995 0.0467017 10.985 0.0433892 10.975 0.0398267C10.9644 0.0360454 10.9541 0.0320142 10.9433 0.0287642C10.9333 0.0257329 10.9231 0.0235142 10.913 0.0209829C10.9021 0.0182017 10.8912 0.0151392 10.8801 0.0129204C10.8684 0.0106079 10.8565 0.00920166 10.8448 0.00751416C10.835 0.00613916 10.8255 0.00426416 10.8156 0.00329541C10.7719 -0.00101709 10.7278 -0.00101709 10.684 0.00329541C10.6742 0.00426416 10.6646 0.00610791 10.6549 0.00751416C10.6431 0.00920166 10.6312 0.0105767 10.6195 0.0129204C10.6084 0.0151392 10.5975 0.0182017 10.5866 0.0209829C10.5765 0.0235142 10.5663 0.0257329 10.5563 0.0287642C10.5455 0.0320142 10.5351 0.0360454 10.5246 0.0398267C10.5146 0.0434204 10.5046 0.0467017 10.4947 0.0507642C10.4849 0.0548267 10.4755 0.0596392 10.4659 0.0641704C10.4558 0.0689517 10.4455 0.0734517 10.4356 0.0787642C10.4264 0.0837017 10.4177 0.0892954 10.4088 0.0946392C10.399 0.100452 10.3892 0.105952 10.3797 0.112295C10.3698 0.118889 10.3605 0.126233 10.351 0.133327C10.3431 0.139264 10.335 0.144764 10.3273 0.151108C10.3104 0.164952 10.2942 0.179545 10.2788 0.194952C10.2786 0.195077 10.2785 0.195139 10.2784 0.195264L7.61176 2.86192C7.35142 3.12226 7.35142 3.54439 7.61176 3.80473C7.87211 4.06508 8.29423 4.06508 8.55457 3.80473L10.0832 2.27614V10C10.0832 10.3682 10.3816 10.6667 10.7498 10.6667C11.118 10.6667 11.4165 10.3682 11.4165 10V2.27617L12.9451 3.80476C13.2054 4.06511 13.6275 4.06511 13.8879 3.80476C14.1482 3.54439 14.1482 3.1223 13.8879 2.86195Z" fill="#2447C4"/>
<path d="M7.52857 12.1953L5.99997 13.7239V6.00003C5.99997 5.63184 5.70151 5.33337 5.33332 5.33337C4.96513 5.33337 4.66666 5.63184 4.66666 6.00003V13.7239L3.13807 12.1953C2.87773 11.9349 2.4556 11.9349 2.19526 12.1953C1.93491 12.4556 1.93491 12.8777 2.19526 13.1381L4.86191 15.8047C4.86204 15.8049 4.86216 15.805 4.86229 15.8051C4.87769 15.8205 4.89391 15.8351 4.91076 15.8489C4.91848 15.8552 4.92663 15.8607 4.93457 15.8667C4.94404 15.8738 4.95332 15.8811 4.96316 15.8877C4.97266 15.8941 4.98251 15.8996 4.99226 15.9054C5.00119 15.9107 5.00991 15.9163 5.0191 15.9212C5.02904 15.9266 5.03926 15.9311 5.04941 15.9358C5.05898 15.9404 5.06841 15.9451 5.07823 15.9492C5.08807 15.9533 5.09813 15.9566 5.10813 15.9601C5.11866 15.9639 5.12904 15.968 5.13979 15.9712C5.14979 15.9742 5.15994 15.9765 5.17007 15.979C5.18104 15.9818 5.19188 15.9848 5.20307 15.9871C5.21479 15.9894 5.2266 15.9907 5.23838 15.9924C5.2481 15.9938 5.25769 15.9957 5.26754 15.9966C5.31129 16.001 5.35538 16.001 5.39913 15.9966C5.40898 15.9957 5.41854 15.9938 5.42829 15.9924C5.44007 15.9907 5.45191 15.9894 5.4636 15.987C5.47479 15.9848 5.4856 15.9817 5.49657 15.979C5.50669 15.9764 5.51685 15.9742 5.52685 15.9712C5.5376 15.9679 5.54801 15.9639 5.55851 15.9601C5.56851 15.9565 5.57857 15.9532 5.58841 15.9492C5.59823 15.9451 5.60763 15.9403 5.61719 15.9358C5.62735 15.931 5.6376 15.9265 5.64754 15.9212C5.65669 15.9163 5.66541 15.9107 5.67432 15.9054C5.68407 15.8996 5.69394 15.894 5.70344 15.8877C5.71329 15.8811 5.72254 15.8738 5.73198 15.8667C5.73994 15.8607 5.7481 15.8552 5.75585 15.8489C5.77257 15.8351 5.78866 15.8206 5.80398 15.8054C5.80423 15.8051 5.80448 15.8049 5.80469 15.8047L8.47135 13.1381C8.73169 12.8777 8.73169 12.4556 8.47135 12.1952C8.21101 11.9349 7.78894 11.9349 7.52857 12.1953Z" fill="#2447C4"/>
</svg>
