<svg width="14" height="16" viewBox="0 0 14 16" fill="none" xmlns="http://www.w3.org/2000/svg">
<path d="M13.2478 0.509776C13.2047 0.316651 13.0449 0.171433 12.8485 0.14687C10.9138 -0.0949424 9.12663 -0.0380048 7.53654 0.316089C5.51166 0.766933 3.77581 1.70456 2.37697 3.10318C0.1955 5.28684 0.195499 8.83993 2.37719 11.0238C2.58763 11.2342 2.81209 11.4254 3.04819 11.5973V15.5312C3.04819 15.7901 3.25806 16 3.51694 16C3.77581 16 3.98569 15.7901 3.98569 15.5312V12.1487C4.71341 12.4854 5.51207 12.6631 6.33835 12.6631C7.83541 12.6631 9.24157 12.0808 10.2976 11.0237C11.9487 9.37278 11.6068 7.098 11.4943 5.8214C11.3225 3.87243 11.1741 2.18925 13.041 1.00815C13.2082 0.902339 13.291 0.702933 13.2478 0.509776ZM3.04 3.76596C4.69097 2.11531 6.83635 1.18346 9.44257 0.979402C8.32475 1.524 7.24457 2.31821 6.30144 3.31375C4.45225 5.26568 3.33594 7.75556 3.09706 10.4165C1.22888 8.60975 1.20009 5.60771 3.04 3.76596ZM10.5603 5.90375C10.7075 7.57275 10.8464 9.14918 9.63451 10.361C8.75538 11.241 7.58479 11.7256 6.33828 11.7256C5.50091 11.7256 4.69763 11.5066 3.99363 11.0963C4.08978 8.42231 5.14185 5.90093 6.982 3.95846C7.8275 3.066 8.81788 2.32896 9.8461 1.82706C10.3474 1.58234 10.8532 1.39553 11.3496 1.26996C10.9812 1.74181 10.7315 2.2815 10.5953 2.89734C10.3808 3.86746 10.4721 4.90265 10.5603 5.90375Z" fill="white"/>
</svg>
