<svg width="564" height="57" viewBox="0 0 564 57" fill="none" xmlns="http://www.w3.org/2000/svg">
<rect x="219" width="132" height="57" rx="10" fill="#FB9F20"/>
<path d="M246.344 36L238.808 19.08H242.144L248.216 33.288H247.208L253.28 19.08H256.496L248.96 36H246.344ZM257.449 36V23.88H260.449V36H257.449ZM257.281 21.6V18.672H260.617V21.6H257.281ZM269.083 36.24C267.051 36.24 265.459 35.68 264.307 34.56C263.155 33.44 262.579 31.904 262.579 29.952C262.579 28.688 262.827 27.584 263.323 26.64C263.819 25.696 264.507 24.96 265.387 24.432C266.283 23.904 267.323 23.64 268.507 23.64C269.675 23.64 270.651 23.888 271.435 24.384C272.219 24.88 272.811 25.576 273.211 26.472C273.627 27.368 273.835 28.416 273.835 29.616V30.408H265.003V28.824H271.699L271.291 29.16C271.291 28.04 271.051 27.184 270.571 26.592C270.107 26 269.427 25.704 268.531 25.704C267.539 25.704 266.771 26.056 266.227 26.76C265.699 27.464 265.435 28.448 265.435 29.712V30.024C265.435 31.336 265.755 32.32 266.395 32.976C267.051 33.616 267.971 33.936 269.155 33.936C269.843 33.936 270.483 33.848 271.075 33.672C271.683 33.48 272.259 33.176 272.803 32.76L273.691 34.776C273.115 35.24 272.427 35.6 271.627 35.856C270.827 36.112 269.979 36.24 269.083 36.24ZM279.068 36L274.34 23.88H277.436L280.844 33.312H280.22L283.676 23.88H285.812L289.244 33.312H288.692L292.076 23.88H295.004L290.276 36H287.636L284.012 26.352H285.284L281.732 36H279.068ZM300.889 36L308.545 19.08H311.137L318.889 36H315.745L313.681 31.248L314.929 32.088H304.777L306.073 31.248L304.009 36H300.889ZM309.817 22.392L306.433 30.408L305.809 29.664H313.873L313.369 30.408L309.913 22.392H309.817ZM320.041 36V18.336H323.041V36H320.041ZM325.819 36V18.336H328.819V36H325.819Z" fill="white"/>
<path d="M1.5 29H193.5" stroke="#011B40" stroke-opacity="0.1" stroke-width="1.5" stroke-linecap="round"/>
<path d="M371 29H563" stroke="#011B40" stroke-opacity="0.1" stroke-width="1.5" stroke-linecap="round"/>
</svg>
