<svg width="24" height="24" viewBox="0 0 24 24" fill="none" xmlns="http://www.w3.org/2000/svg">
<g opacity="0.5" clip-path="url(#clip0_63_270)">
<path d="M3.9019 11.2654C3.4016 11.7657 3.4016 12.5799 3.9019 13.0851C4.40221 13.5854 5.21643 13.5854 5.72165 13.0851C9.18455 9.62222 14.8204 9.62222 18.2833 13.0851C18.5334 13.3353 18.8621 13.4628 19.1907 13.4628C19.5193 13.4628 19.848 13.3353 20.0981 13.0851C20.5984 12.5848 20.5984 11.7706 20.0981 11.2654C15.6346 6.79696 8.36542 6.79696 3.9019 11.2654Z" fill="#2447C4"/>
<path d="M7.37462 14.7383C6.87431 15.2386 6.87431 16.0528 7.37462 16.558C7.87492 17.0583 8.68915 17.0583 9.19436 16.558C10.7394 15.008 13.2606 15.008 14.8056 16.558C15.0558 16.8082 15.3844 16.9357 15.713 16.9357C16.0417 16.9357 16.3703 16.8082 16.6205 16.558C17.1208 16.0577 17.1208 15.2435 16.6205 14.7432C14.0748 12.1877 9.9252 12.1877 7.37462 14.7383Z" fill="#2447C4"/>
<path d="M12 21.0704C12.9454 21.0704 13.7118 20.304 13.7118 19.3586C13.7118 18.4131 12.9454 17.6467 12 17.6467C11.0546 17.6467 10.2882 18.4131 10.2882 19.3586C10.2882 20.304 11.0546 21.0704 12 21.0704Z" fill="#2447C4"/>
<path d="M23.6248 7.73385C17.214 1.32797 6.78602 1.32797 0.37523 7.73385C-0.125077 8.23416 -0.125077 9.04838 0.37523 9.55359C0.875537 10.0539 1.68976 10.0539 2.19497 9.55359C7.60025 4.14342 16.3998 4.14342 21.8099 9.55359C22.0601 9.80375 22.3887 9.93128 22.7174 9.93128C23.046 9.93128 23.3746 9.80375 23.6248 9.55359C24.1251 9.05329 24.1251 8.23906 23.6248 7.73385Z" fill="#2447C4"/>
</g>
<defs>
<clipPath id="clip0_63_270">
<rect width="24" height="24" fill="white"/>
</clipPath>
</defs>
</svg>
